<?xml version="1.0" standalone="no"?>
<!DOCTYPE svg PUBLIC "-//W3C//DTD SVG 20010904//EN"
 "http://www.w3.org/TR/2001/REC-SVG-20010904/DTD/svg10.dtd">
<svg version="1.0" xmlns="http://www.w3.org/2000/svg"
 width="1080.000000pt" height="1080.000000pt" viewBox="0 0 1080.000000 1080.000000"
 preserveAspectRatio="xMidYMid meet">

<g transform="translate(0.000000,1080.000000) scale(0.100000,-0.100000)"
fill="#000000" stroke="none">
<path d="M1176 10780 c-63 -25 -122 -81 -152 -145 l-24 -50 0 -5185 0 -5185
24 -50 c30 -65 104 -131 169 -150 45 -13 617 -15 4824 -15 l4773 0 0 45 0 45
-4834 0 c-4484 0 -4835 1 -4847 17 -12 14 -14 830 -14 5257 0 5045 1 5242 18
5274 11 21 34 41 60 53 41 18 148 19 4830 19 l4787 0 0 45 0 45 -4782 0
c-4696 -1 -4784 -1 -4832 -20z"/>
<path d="M1488 10433 c-10 -11 -15 -29 -12 -48 4 -25 3 -27 -6 -12 -6 9 -21
17 -32 17 -21 0 -21 0 -2 15 18 14 17 15 -11 9 -39 -9 -47 -14 -42 -27 2 -6
-5 -19 -16 -28 -25 -20 -18 -55 19 -92 32 -32 61 -38 43 -8 -7 10 -9 26 -5 36
6 15 9 16 29 3 12 -8 26 -25 32 -36 7 -15 19 -22 38 -22 l28 0 -30 37 c-17 21
-27 39 -21 41 21 7 41 -8 56 -44 11 -27 20 -35 37 -32 17 2 21 9 19 28 -2 14
-5 53 -6 87 -1 35 -6 67 -11 72 -6 6 -28 13 -50 16 -32 5 -44 3 -57 -12z m86
-27 c-3 -8 -12 -12 -20 -9 -21 8 -17 23 6 23 13 0 18 -5 14 -14z m10 -91 c5
-22 4 -26 -4 -15 -5 8 -10 24 -10 34 0 26 6 18 14 -19z"/>
<path d="M2310 10155 c0 -78 3 -95 15 -95 10 0 15 10 15 33 l0 32 26 -32 c14
-18 32 -33 40 -33 18 0 18 14 -1 30 -26 21 -27 49 -5 80 18 25 19 30 5 30 -9
0 -27 -12 -40 -27 l-24 -28 -1 53 c0 39 -4 52 -15 52 -12 0 -15 -17 -15 -95z"/>
<path d="M2772 10158 c3 -88 4 -93 26 -96 15 -2 22 2 22 12 0 9 -4 16 -10 16
-6 0 -10 33 -10 80 0 65 -3 80 -15 80 -13 0 -15 -15 -13 -92z"/>
<path d="M1830 10150 l0 -90 53 0 c76 0 108 38 73 85 -10 14 -11 25 -5 37 6
12 6 25 -1 38 -9 16 -21 20 -65 20 l-55 0 0 -90z m79 61 c21 -13 5 -41 -24
-41 -18 0 -25 5 -25 18 0 31 21 41 49 23z m19 -93 c-2 -18 -11 -24 -35 -26
-30 -3 -33 -1 -33 22 0 23 4 26 36 26 31 0 35 -3 32 -22z"/>
<path d="M2450 10150 l0 -90 54 0 c60 0 86 16 86 54 0 13 -7 29 -15 36 -11 9
-12 16 -2 31 21 34 -2 54 -67 57 l-56 3 0 -91z m74 64 c9 -3 16 -15 16 -25 0
-14 -7 -19 -30 -19 -22 0 -30 5 -30 18 0 30 13 38 44 26z m29 -86 c8 -25 -6
-38 -39 -38 -30 0 -34 3 -34 25 0 22 4 25 34 25 19 0 36 -6 39 -12z"/>
<path d="M1350 10113 c0 -112 -12 -105 185 -101 l140 3 3 33 c3 31 2 32 -28
30 -36 -3 -57 18 -46 47 5 14 14 16 41 12 34 -6 35 -5 35 28 l0 34 -165 3
-165 3 0 -92z"/>
<path d="M2013 10193 c-7 -2 -13 -11 -13 -18 0 -10 10 -12 36 -8 48 8 43 -15
-6 -31 -37 -12 -49 -38 -30 -61 15 -18 52 -19 68 -3 9 9 12 9 12 0 0 -7 9 -12
20 -12 11 0 20 7 20 15 0 8 -4 15 -10 15 -5 0 -10 19 -10 43 0 24 -5 48 -12
55 -12 12 -52 15 -75 5z m46 -104 c-16 -9 -29 -3 -29 16 0 18 34 24 38 6 2 -7
-2 -17 -9 -22z"/>
<path d="M2150 10130 c0 -56 3 -70 15 -70 11 0 15 12 15 44 0 46 19 72 45 62
11 -4 15 -20 15 -56 0 -38 4 -50 15 -50 12 0 15 13 15 58 0 62 -11 82 -45 82
-12 0 -26 -5 -33 -12 -9 -9 -12 -9 -12 0 0 7 -7 12 -15 12 -12 0 -15 -14 -15
-70z"/>
<path d="M2637 10189 c-26 -15 -11 -29 25 -22 24 5 30 3 26 -8 -2 -8 -14 -15
-26 -17 -28 -4 -44 -26 -40 -54 3 -26 40 -37 63 -18 9 7 15 8 20 0 8 -13 45
-13 45 -1 0 6 -4 13 -10 16 -5 3 -10 25 -10 49 0 23 -5 47 -12 54 -15 15 -57
15 -81 1z m53 -89 c-12 -22 -25 -26 -35 -10 -9 15 4 30 26 30 17 0 18 -3 9
-20z"/>
<path d="M2857 10189 c-27 -16 -11 -28 28 -22 44 7 48 -15 5 -23 -37 -8 -53
-26 -48 -56 3 -21 8 -23 66 -25 47 -1 62 2 62 13 0 8 -4 14 -10 14 -5 0 -10
19 -10 43 0 24 -5 48 -12 55 -15 15 -57 15 -81 1z m50 -96 c-15 -15 -37 -11
-37 8 0 14 44 29 49 17 2 -6 -4 -17 -12 -25z"/>
<path d="M2990 10129 c0 -62 2 -69 19 -69 17 0 20 8 23 53 3 44 6 52 23 52 17
0 20 -8 23 -52 3 -46 6 -53 24 -53 19 0 20 5 16 60 -2 33 -8 63 -12 67 -4 4
-32 8 -62 9 l-54 2 0 -69z"/>
<path d="M3170 10180 c-26 -26 -26 -81 -2 -103 37 -34 128 -8 92 26 -10 9 -13
9 -17 0 -3 -7 -15 -13 -29 -13 -31 0 -44 44 -20 68 13 13 20 14 35 5 11 -7 23
-8 32 -2 12 8 11 12 -5 24 -27 21 -62 19 -86 -5z"/>
<path d="M3310 10180 c-41 -41 -14 -120 40 -120 38 0 60 9 60 26 0 9 -11 13
-36 11 -22 -1 -39 3 -41 11 -3 8 9 12 41 12 37 0 46 3 46 18 0 55 -70 82 -110
42z m70 -25 c0 -9 -9 -15 -25 -15 -24 0 -32 10 -18 23 12 13 43 7 43 -8z"/>
<path d="M4311 10063 c11 -37 24 -87 31 -111 9 -35 14 -42 31 -40 17 2 25 18
40 76 11 40 23 69 27 65 4 -4 15 -39 25 -76 15 -58 21 -68 38 -65 16 2 26 22
49 103 33 119 33 115 9 115 -16 0 -23 -14 -37 -75 -10 -41 -21 -72 -24 -68 -4
5 -15 39 -25 76 -15 59 -20 68 -38 65 -14 -2 -24 -14 -30 -38 -22 -91 -29
-112 -34 -107 -2 3 -13 36 -22 74 -14 55 -21 69 -39 71 l-21 3 20 -68z"/>
<path d="M4780 10020 c0 -91 3 -110 15 -110 12 0 15 19 15 110 0 91 -3 110
-15 110 -12 0 -15 -19 -15 -110z"/>
<path d="M4611 10054 c-62 -79 27 -185 107 -128 12 8 22 19 22 25 0 13 -34 11
-47 -2 -18 -18 -63 -2 -63 21 0 18 7 20 55 20 52 0 55 1 55 25 0 62 -90 89
-129 39z m87 -26 c3 -15 -4 -18 -32 -18 -39 0 -39 0 -30 25 9 22 58 16 62 -7z"/>
<path d="M4871 10054 c-45 -57 -10 -144 59 -144 29 0 70 29 70 50 0 16 -37 12
-44 -5 -7 -18 -37 -20 -54 -3 -16 16 -16 70 0 86 17 17 47 15 54 -3 7 -17 44
-21 44 -5 0 22 -41 50 -74 50 -25 0 -40 -7 -55 -26z"/>
<path d="M5052 10057 c-33 -35 -30 -99 4 -126 35 -27 67 -26 100 3 21 17 28
33 28 59 0 75 -84 115 -132 64z m89 -34 c18 -49 -22 -101 -56 -73 -18 15 -20
71 -3 88 21 21 48 14 59 -15z"/>
<path d="M5220 9994 c0 -76 2 -85 18 -82 14 3 18 16 20 66 2 44 7 65 18 69 28
11 44 -17 44 -79 0 -51 2 -59 18 -56 14 3 18 16 20 66 2 47 7 65 19 69 25 10
43 -25 43 -84 0 -40 4 -53 15 -53 12 0 15 15 15 73 0 80 -9 97 -50 97 -14 0
-31 -5 -38 -12 -9 -9 -15 -9 -24 0 -15 15 -50 16 -65 1 -8 -8 -13 -8 -17 0 -4
6 -14 11 -22 11 -11 0 -14 -18 -14 -86z"/>
<path d="M5512 10057 c-33 -35 -30 -99 4 -126 33 -26 75 -27 105 -2 22 18 22
20 6 26 -9 4 -24 2 -32 -5 -22 -18 -60 -8 -63 18 -3 21 0 22 52 22 52 0 56 2
56 23 0 59 -87 88 -128 44z m86 -29 c3 -15 -4 -18 -32 -18 -34 0 -47 15 -29
34 13 13 58 1 61 -16z"/>
<path d="M5684 9905 c-11 -63 18 -60 31 3 5 25 3 32 -9 32 -9 0 -18 -13 -22
-35z"/>
<path d="M4326 9664 c-8 -22 -4 -25 11 -9 7 8 9 16 4 19 -5 3 -12 -1 -15 -10z"/>
<path d="M4914 9665 c-3 -8 -3 -19 1 -25 4 -6 1 -17 -5 -25 -14 -17 -6 -45 12
-44 10 0 10 2 1 6 -20 7 -15 26 12 52 14 13 25 28 25 35 0 6 -5 3 -11 -6 -14
-24 -33 -23 -26 2 6 23 -1 27 -9 5z"/>
<path d="M7019 9658 c-4 -63 -3 -81 3 -85 5 -2 8 19 8 46 0 28 -2 51 -5 51 -3
0 -5 -6 -6 -12z"/>
<path d="M8201 9620 l2 -55 7 45 c4 25 4 49 -1 55 -5 5 -8 -13 -8 -45z"/>
<path d="M8263 9620 c0 -30 2 -43 4 -27 2 15 2 39 0 55 -2 15 -4 2 -4 -28z"/>
<path d="M6671 9618 c-1 -27 3 -48 7 -48 4 0 6 17 4 38 -5 58 -10 62 -11 10z"/>
<path d="M7111 9623 c-1 -23 3 -44 7 -47 4 -2 6 12 4 32 -5 56 -10 62 -11 15z"/>
<path d="M7680 9651 c0 -6 5 -13 10 -16 6 -3 10 1 10 9 0 9 -4 16 -10 16 -5 0
-10 -4 -10 -9z"/>
<path d="M8681 9644 c0 -11 3 -14 6 -6 3 7 2 16 -1 19 -3 4 -6 -2 -5 -13z"/>
<path d="M4410 9630 c-12 -23 2 -60 23 -60 8 0 8 3 -2 9 -9 6 -12 20 -9 40 5
36 3 39 -12 11z"/>
<path d="M4504 9636 c-9 -24 0 -59 16 -63 12 -4 13 -3 1 5 -8 6 -12 21 -9 41
5 33 1 41 -8 17z"/>
<path d="M4594 9636 c-9 -24 0 -59 16 -63 12 -4 13 -3 1 5 -8 6 -12 21 -9 41
5 33 1 41 -8 17z"/>
<path d="M4690 9630 c0 -11 4 -20 9 -20 5 0 7 9 4 20 -3 11 -7 20 -9 20 -2 0
-4 -9 -4 -20z"/>
<path d="M4775 9640 c-8 -13 3 -30 18 -30 8 0 7 3 -2 9 -7 5 -10 14 -7 20 4 6
5 11 2 11 -3 0 -8 -4 -11 -10z"/>
<path d="M5053 9610 c0 -25 2 -35 4 -22 2 12 2 32 0 45 -2 12 -4 2 -4 -23z"/>
<path d="M5157 9615 c7 -49 13 -58 13 -19 0 16 -5 36 -10 44 -6 10 -7 2 -3
-25z"/>
<path d="M5293 9610 c0 -25 2 -35 4 -22 2 12 2 32 0 45 -2 12 -4 2 -4 -23z"/>
<path d="M5340 9607 c4 -41 5 -41 8 -8 2 18 0 37 -5 42 -5 5 -6 -11 -3 -34z"/>
<path d="M5624 9629 c0 -10 4 -19 8 -19 4 0 8 6 8 14 0 8 -4 17 -8 20 -4 2 -8
-4 -8 -15z"/>
<path d="M5856 9637 c3 -10 9 -15 12 -12 3 3 0 11 -7 18 -10 9 -11 8 -5 -6z"/>
<path d="M6382 9638 c-17 -17 -15 -43 5 -59 15 -13 15 -12 2 9 -11 18 -11 26
-1 42 14 23 12 26 -6 8z"/>
<path d="M6528 9614 c-2 -19 0 -37 4 -40 4 -3 8 13 8 35 0 51 -6 53 -12 5z"/>
<path d="M6573 9610 c0 -25 2 -35 4 -22 2 12 2 32 0 45 -2 12 -4 2 -4 -23z"/>
<path d="M6863 9610 c0 -25 2 -35 4 -22 2 12 2 32 0 45 -2 12 -4 2 -4 -23z"/>
<path d="M6917 9615 c7 -49 13 -58 13 -19 0 16 -5 36 -10 44 -6 10 -7 2 -3
-25z"/>
<path d="M7163 9610 c0 -25 2 -35 4 -22 2 12 2 32 0 45 -2 12 -4 2 -4 -23z"/>
<path d="M7370 9607 c4 -41 5 -41 8 -8 2 18 0 37 -5 42 -5 5 -6 -11 -3 -34z"/>
<path d="M7415 9640 c-8 -13 3 -30 18 -30 8 0 7 3 -2 9 -7 5 -10 14 -7 20 4 6
5 11 2 11 -3 0 -8 -4 -11 -10z"/>
<path d="M7930 9607 c4 -41 5 -41 8 -8 2 18 0 37 -5 42 -5 5 -6 -11 -3 -34z"/>
<path d="M8581 9634 c0 -11 3 -14 6 -6 3 7 2 16 -1 19 -3 4 -6 -2 -5 -13z"/>
<path d="M5428 9628 c-6 -18 3 -58 13 -58 12 0 12 57 0 64 -5 4 -11 1 -13 -6z"/>
<path d="M5477 9633 c-13 -12 -7 -40 11 -54 15 -13 16 -12 3 3 -7 10 -11 27
-8 38 5 21 4 24 -6 13z"/>
<path d="M5903 9608 c1 -23 7 -33 20 -34 11 -1 12 0 3 3 -8 2 -17 17 -20 34
-6 28 -6 28 -3 -3z"/>
<path d="M5957 9613 c-3 -16 -1 -32 4 -37 5 -6 9 4 9 27 0 44 -6 48 -13 10z"/>
<path d="M6148 9629 c-6 -19 3 -59 13 -59 11 0 11 41 0 59 -7 11 -9 11 -13 0z"/>
<path d="M6194 9625 c-3 -8 -4 -20 -2 -27 3 -7 7 -1 10 15 6 29 1 36 -8 12z"/>
<path d="M6471 9623 c-2 -32 9 -53 27 -53 14 0 14 1 0 13 -9 6 -19 23 -21 37
-4 22 -4 22 -6 3z"/>
<path d="M6812 9625 c-7 -8 -8 -15 -3 -15 5 0 12 -10 14 -22 3 -14 5 -9 6 15
1 42 1 42 -17 22z"/>
<path d="M6953 9624 c-7 -19 7 -46 28 -52 8 -2 5 2 -5 10 -13 10 -17 22 -13
37 6 25 -1 28 -10 5z"/>
<path d="M7743 9605 c0 -22 2 -30 4 -17 2 12 2 30 0 40 -3 9 -5 -1 -4 -23z"/>
<path d="M7970 9631 c0 -6 4 -13 10 -16 6 -3 7 1 4 9 -7 18 -14 21 -14 7z"/>
<path d="M1517 9623 c-13 -12 -7 -59 9 -79 14 -18 15 -18 4 5 -7 13 -10 36 -8
52 5 31 5 32 -5 22z"/>
<path d="M1648 9601 c2 -16 -1 -38 -7 -49 -8 -15 -7 -23 2 -30 9 -8 13 2 15
43 1 30 -1 56 -6 59 -5 3 -7 -8 -4 -23z"/>
<path d="M2233 9580 c0 -30 2 -43 4 -27 2 15 2 39 0 55 -2 15 -4 2 -4 -28z"/>
<path d="M4302 9598 c-10 -30 -10 -31 3 -14 13 17 21 46 12 46 -1 0 -8 -15
-15 -32z"/>
<path d="M4640 9620 c-13 -8 -12 -10 3 -10 9 0 17 5 17 10 0 12 -1 12 -20 0z"/>
<path d="M5240 9620 c-12 -7 -12 -10 -1 -10 7 0 11 -6 8 -15 -4 -8 -2 -17 3
-20 6 -4 10 7 10 24 0 35 1 34 -20 21z"/>
<path d="M5570 9611 c0 -25 6 -27 13 -6 4 8 2 17 -3 20 -6 4 -10 -3 -10 -14z"/>
<path d="M5802 9610 c0 -14 2 -19 5 -12 2 6 2 18 0 25 -3 6 -5 1 -5 -13z"/>
<path d="M6281 9614 c0 -12 7 -28 17 -35 15 -12 16 -12 6 1 -7 8 -14 24 -17
35 -4 19 -5 19 -6 -1z"/>
<path d="M7540 9620 c-9 -6 -10 -10 -3 -10 6 0 14 -10 16 -22 3 -17 5 -14 6
10 1 36 2 35 -19 22z"/>
<path d="M8102 9604 c2 -15 10 -29 18 -31 12 -4 13 -3 1 5 -8 6 -11 17 -8 26
3 8 1 18 -4 22 -7 4 -9 -4 -7 -22z"/>
<path d="M8155 9620 c-3 -5 -1 -10 4 -10 6 0 11 5 11 10 0 6 -2 10 -4 10 -3 0
-8 -4 -11 -10z"/>
<path d="M8352 9610 c0 -14 2 -19 5 -12 2 6 2 18 0 25 -3 6 -5 1 -5 -13z"/>
<path d="M8480 9611 c0 -25 6 -27 13 -6 4 8 2 17 -3 20 -6 4 -10 -3 -10 -14z"/>
<path d="M8535 9620 c-3 -5 -1 -10 4 -10 6 0 11 5 11 10 0 6 -2 10 -4 10 -3 0
-8 -4 -11 -10z"/>
<path d="M4356 9611 c-4 -6 -2 -11 3 -11 6 0 11 -8 12 -17 0 -10 3 -13 5 -6 8
18 -11 49 -20 34z"/>
<path d="M6441 9608 c-1 -9 -9 -22 -18 -27 -10 -6 -13 -11 -7 -11 17 0 37 27
31 42 -4 8 -6 7 -6 -4z"/>
<path d="M7263 9613 c12 -3 16 -10 12 -24 -4 -11 -2 -19 4 -19 6 0 11 11 11
25 0 20 -5 25 -22 24 -18 -1 -19 -2 -5 -6z"/>
<path d="M7832 9592 c-11 -25 -11 -25 4 -10 9 9 15 21 13 27 -2 6 -10 -2 -17
-17z"/>
<path d="M4815 9601 c4 -8 2 -17 -6 -22 -9 -6 -10 -9 -2 -9 19 0 27 21 13 33
-10 9 -11 9 -5 -2z"/>
<path d="M4951 9594 c7 -8 6 -14 -3 -17 -7 -3 -4 -5 8 -4 25 1 30 33 4 33 -14
0 -16 -4 -9 -12z"/>
<path d="M5194 9599 c-3 -6 -2 -15 3 -20 5 -5 9 -1 9 11 0 23 -2 24 -12 9z"/>
<path d="M5380 9596 c0 -8 4 -17 9 -20 5 -4 7 3 4 14 -6 23 -13 26 -13 6z"/>
<path d="M6100 9590 c0 -11 4 -20 9 -20 5 0 7 9 4 20 -3 11 -7 20 -9 20 -2 0
-4 -9 -4 -20z"/>
<path d="M7455 9601 c4 -8 2 -17 -6 -22 -9 -6 -10 -9 -2 -9 19 0 27 21 13 33
-10 9 -11 9 -5 -2z"/>
<path d="M8015 9601 c4 -8 2 -17 -6 -22 -9 -6 -10 -9 -2 -9 19 0 27 21 13 33
-10 9 -11 9 -5 -2z"/>
<path d="M2083 9565 c0 -22 2 -30 4 -17 2 12 2 30 0 40 -3 9 -5 -1 -4 -23z"/>
<path d="M5735 9583 c3 -8 5 -18 5 -21 0 -8 20 20 20 29 0 3 -7 6 -15 6 -10 0
-14 -6 -10 -14z"/>
<path d="M5852 9584 c-7 -8 -8 -14 -3 -14 10 0 25 19 20 25 -2 1 -10 -3 -17
-11z"/>
<path d="M7220 9591 c0 -6 4 -13 10 -16 6 -3 7 1 4 9 -7 18 -14 21 -14 7z"/>
<path d="M8803 9592 c-7 -4 -9 -13 -4 -21 6 -9 10 -7 14 8 3 12 4 21 4 21 -1
0 -7 -4 -14 -8z"/>
<path d="M1892 9570 c0 -14 2 -19 5 -12 2 6 2 18 0 25 -3 6 -5 1 -5 -13z"/>
<path d="M2042 9560 c0 -19 2 -27 5 -17 2 9 2 25 0 35 -3 9 -5 1 -5 -18z"/>
<path d="M4725 9580 c-3 -5 -1 -10 4 -10 6 0 11 5 11 10 0 6 -2 10 -4 10 -3 0
-8 -4 -11 -10z"/>
<path d="M7497 9579 c7 -7 15 -10 18 -7 3 3 -2 9 -12 12 -14 6 -15 5 -6 -5z"/>
<path d="M7597 9579 c7 -7 15 -10 18 -7 3 3 -2 9 -12 12 -14 6 -15 5 -6 -5z"/>
<path d="M7787 9579 c7 -7 15 -10 18 -7 3 3 -2 9 -12 12 -14 6 -15 5 -6 -5z"/>
<path d="M8680 9580 c0 -5 5 -10 11 -10 5 0 7 5 4 10 -3 6 -8 10 -11 10 -2 0
-4 -4 -4 -10z"/>
<path d="M5525 9550 c-3 -5 -1 -10 4 -10 6 0 11 5 11 10 0 6 -2 10 -4 10 -3 0
-8 -4 -11 -10z"/>
<path d="M1578 9513 c7 -3 16 -2 19 1 4 3 -2 6 -13 5 -11 0 -14 -3 -6 -6z"/>
<path d="M1286 9094 c-14 -13 -16 -51 -16 -263 0 -227 2 -249 18 -264 17 -16
89 -17 830 -17 502 0 812 4 812 9 0 6 9 8 20 6 12 -2 18 0 15 6 -4 5 -10 7
-15 4 -5 -3 -14 4 -20 15 -8 15 -8 20 1 20 7 0 9 9 5 24 -4 18 -1 25 15 29 25
7 16 27 -11 27 -13 0 -17 5 -14 15 4 8 9 13 13 11 3 -2 12 2 19 10 11 12 9 14
-7 14 -28 0 -35 17 -10 25 14 5 18 10 11 17 -6 6 -8 17 -5 24 3 9 -1 14 -12
14 -9 0 -13 5 -10 11 4 6 14 8 24 5 13 -5 13 -4 -2 8 -12 9 -14 15 -6 18 8 3
6 9 -5 21 -16 16 -16 17 0 17 13 0 14 3 5 13 -6 8 -8 17 -4 20 3 4 0 7 -8 7
-11 0 -11 2 1 10 13 8 13 10 -2 10 -9 0 -19 4 -22 9 -4 5 3 7 14 4 12 -3 20 0
20 6 0 7 -5 9 -12 5 -7 -4 -4 2 6 14 13 15 15 22 6 22 -9 0 -10 3 -2 13 6 7
10 26 9 42 l-2 30 -822 3 c-737 2 -823 0 -837 -14z m1650 -51 c-10 -10 -19 5
-10 18 6 11 8 11 12 0 2 -7 1 -15 -2 -18z m-1381 -119 c57 -38 65 -51 65 -112
0 -87 -6 -92 -110 -92 -81 0 -90 2 -104 22 -18 26 -21 100 -5 129 11 22 86 79
103 79 6 0 29 -12 51 -26z m235 -59 c0 -14 4 -25 9 -25 23 0 41 14 41 31 0 10
7 19 15 19 13 0 15 -11 13 -62 -2 -38 -8 -63 -15 -66 -8 -2 -13 6 -13 22 0 21
-5 26 -25 26 -20 0 -25 -5 -25 -25 0 -16 -6 -25 -15 -25 -12 0 -15 14 -15 65
0 51 3 65 15 65 9 0 15 -9 15 -25z m164 -11 c32 -31 10 -94 -33 -94 -26 0 -41
21 -41 57 0 47 43 69 74 37z m149 7 c4 -1 7 -24 7 -52 0 -57 -23 -66 -28 -11
-4 44 -22 40 -22 -4 0 -45 -24 -42 -28 4 -4 43 -22 41 -22 -3 0 -24 -5 -35
-15 -35 -11 0 -15 13 -15 53 l0 53 58 -2 c31 -1 60 -2 65 -3z m88 -1 c14 -8
19 -21 19 -50 0 -34 -4 -41 -25 -46 -51 -13 -84 48 -48 88 19 21 27 22 54 8z"/>
<path d="M1457 8893 c-37 -27 -38 -27 -35 -87 l3 -61 73 -3 c90 -4 102 4 102
69 0 46 -2 50 -44 79 -25 16 -48 30 -53 30 -4 0 -25 -12 -46 -27z m63 -108 c0
-14 -4 -25 -10 -25 -5 0 -10 11 -10 25 0 14 5 25 10 25 6 0 10 -11 10 -25z"/>
<path d="M1910 8809 c0 -24 23 -21 28 4 2 10 -3 17 -12 17 -10 0 -16 -9 -16
-21z"/>
<path d="M2957 9003 c-9 -9 -9 -43 1 -43 4 0 7 11 7 25 0 14 0 25 -1 25 0 0
-4 -3 -7 -7z"/>
<path d="M5140 8855 l0 -75 39 0 c50 0 148 -30 203 -63 62 -36 145 -128 174
-192 14 -30 28 -55 31 -55 23 0 116 37 120 48 12 30 -60 147 -141 228 -96 96
-192 148 -314 170 -120 21 -112 25 -112 -61z"/>
<path d="M10586 8864 c-9 -24 -7 -27 9 -10 17 17 19 26 6 26 -5 0 -12 -7 -15
-16z"/>
<path d="M6023 8864 c-7 -3 -13 -12 -13 -20 0 -12 4 -12 20 -2 15 10 22 10 32
0 9 -9 5 -19 -20 -45 -18 -18 -32 -36 -32 -40 0 -4 18 -7 40 -7 22 0 40 5 40
10 0 6 -12 10 -27 10 l-27 0 29 30 c24 25 27 34 19 48 -11 18 -40 25 -61 16z"/>
<path d="M6150 8811 l0 -61 34 0 c39 0 62 21 51 47 -4 10 -8 29 -9 43 -1 21
-6 25 -38 28 l-38 3 0 -60z m60 24 c0 -8 -9 -15 -20 -15 -11 0 -20 7 -20 15 0
8 9 15 20 15 11 0 20 -7 20 -15z m8 -47 c-7 -20 -48 -23 -48 -4 0 11 9 16 26
16 16 0 24 -5 22 -12z"/>
<path d="M6450 8810 c0 -33 4 -60 10 -60 6 0 10 7 10 15 0 8 5 15 10 15 6 0
13 -7 16 -15 4 -8 13 -15 20 -15 12 0 12 5 -2 25 -13 20 -14 28 -4 40 19 23 3
31 -20 10 -20 -18 -20 -17 -20 13 0 18 -4 32 -10 32 -6 0 -10 -27 -10 -60z"/>
<path d="M6600 8814 c-21 -57 -19 -83 4 -51 16 21 56 23 56 2 0 -8 7 -15 15
-15 12 0 10 11 -7 60 -12 33 -28 60 -34 60 -7 0 -22 -25 -34 -56z m38 -13
c-15 -5 -19 4 -11 24 6 18 7 18 13 -1 4 -10 3 -21 -2 -23z"/>
<path d="M7187 8847 c-10 -26 8 -92 26 -95 9 -2 17 1 17 7 0 6 -4 11 -10 11
-13 0 -13 47 0 55 6 4 5 12 -4 21 -18 17 -22 18 -29 1z"/>
<path d="M10667 8843 c-13 -12 -7 -40 11 -54 15 -13 16 -12 3 3 -7 10 -11 27
-8 38 5 21 4 24 -6 13z"/>
<path d="M6265 8831 c-4 -7 4 -11 20 -11 15 0 24 -4 20 -10 -3 -5 -14 -10 -25
-10 -20 0 -32 -21 -21 -38 3 -6 21 -10 39 -10 32 1 33 2 30 42 -3 36 -6 41
-30 44 -14 2 -29 -2 -33 -7z m45 -51 c0 -5 -9 -10 -21 -10 -11 0 -17 5 -14 10
3 6 13 10 21 10 8 0 14 -4 14 -10z"/>
<path d="M6350 8794 c0 -51 17 -60 22 -12 2 22 9 34 21 36 14 3 17 -4 17 -32
0 -20 5 -36 11 -36 6 0 9 17 7 43 -3 41 -4 42 -40 44 l-38 1 0 -44z"/>
<path d="M6712 8828 c-16 -16 -15 -53 3 -68 16 -14 47 -10 52 6 2 7 -6 10 -22
7 -22 -5 -25 -2 -25 22 0 24 3 26 26 21 19 -5 25 -3 22 6 -6 18 -40 22 -56 6z"/>
<path d="M6802 8828 c-17 -17 -15 -53 3 -68 16 -13 65 -6 65 10 0 5 -12 8 -27
7 -22 -2 -28 2 -28 18 0 16 6 20 28 18 24 -2 27 0 17 13 -15 17 -42 18 -58 2z"/>
<path d="M6897 8833 c-4 -3 -7 -21 -7 -39 0 -28 5 -35 25 -40 15 -4 32 -1 40
6 18 15 20 51 3 68 -13 13 -50 16 -61 5z m48 -38 c0 -11 -8 -21 -17 -23 -14
-3 -18 3 -18 23 0 20 4 26 18 23 9 -2 17 -12 17 -23z"/>
<path d="M6992 8798 c3 -41 5 -43 36 -45 32 -1 32 -1 32 43 0 28 -4 43 -10 39
-5 -3 -10 -19 -10 -36 0 -19 -5 -29 -15 -29 -10 0 -15 11 -15 35 0 19 -5 35
-11 35 -6 0 -9 -17 -7 -42z"/>
<path d="M7090 8793 c0 -23 5 -43 10 -43 6 0 10 16 10 35 0 23 5 35 14 35 15
0 26 -21 26 -51 0 -10 5 -19 10 -19 13 0 13 46 0 70 -7 12 -20 18 -40 18 -29
-1 -30 -3 -30 -45z"/>
<path d="M7257 8833 c-14 -14 -6 -34 18 -43 32 -12 32 -24 0 -17 -16 3 -24 0
-22 -7 5 -16 36 -20 52 -6 22 18 18 29 -11 40 -14 6 -23 14 -19 20 3 5 13 6
22 3 11 -4 14 -3 9 5 -8 13 -39 16 -49 5z"/>
<path d="M10570 8820 c0 -5 5 -10 11 -10 5 0 7 5 4 10 -3 6 -8 10 -11 10 -2 0
-4 -4 -4 -10z"/>
<path d="M10610 8816 c0 -2 7 -9 15 -16 13 -11 14 -10 9 4 -5 14 -24 23 -24
12z"/>
<path d="M6043 8345 c0 -27 2 -38 4 -22 2 15 2 37 0 50 -2 12 -4 0 -4 -28z"/>
<path d="M6313 8345 c0 -27 2 -38 4 -22 2 15 2 37 0 50 -2 12 -4 0 -4 -28z"/>
<path d="M6395 8379 c-11 -16 -1 -19 13 -3 7 8 8 14 3 14 -5 0 -13 -5 -16 -11z"/>
<path d="M6942 8343 c2 -39 7 -48 23 -50 11 -2 14 0 8 3 -22 10 -15 44 8 44
16 0 20 -5 16 -20 -3 -11 -1 -20 5 -20 5 0 8 10 6 23 -2 14 -11 23 -25 25 -15
2 -23 10 -23 23 0 10 -5 19 -11 19 -6 0 -9 -19 -7 -47z"/>
<path d="M6996 8377 c3 -10 9 -15 12 -12 3 3 0 11 -7 18 -10 9 -11 8 -5 -6z"/>
<path d="M6179 8375 c-7 -6 2 -75 10 -75 3 0 6 15 6 34 0 34 -7 51 -16 41z"/>
<path d="M6859 8374 c-1 -5 0 -22 1 -39 3 -46 15 -50 14 -4 -1 35 -12 67 -15
43z"/>
<path d="M7123 8340 c0 -25 2 -35 4 -22 2 12 2 32 0 45 -2 12 -4 2 -4 -23z"/>
<path d="M6102 8358 c-26 -26 -2 -75 31 -62 22 8 29 32 17 55 -12 22 -30 25
-48 7z m42 -15 c8 -19 -17 -48 -33 -39 -12 8 -15 39 -4 49 12 12 31 7 37 -10z"/>
<path d="M6260 8359 c20 -8 22 -12 10 -19 -12 -8 -12 -10 -1 -10 7 0 11 -6 7
-15 -3 -8 -1 -15 4 -15 14 0 12 44 -2 58 -7 7 -19 12 -27 11 -9 0 -5 -5 9 -10z"/>
<path d="M6631 8331 c1 -28 3 -30 6 -11 3 14 9 30 14 36 5 7 3 11 -6 11 -11 0
-15 -11 -14 -36z"/>
<path d="M6692 8358 c-17 -17 -15 -43 6 -59 14 -11 15 -11 5 1 -19 21 -16 30
13 30 19 0 25 5 22 17 -4 22 -29 28 -46 11z m38 -8 c0 -5 -9 -10 -21 -10 -11
0 -17 5 -14 10 3 6 13 10 21 10 8 0 14 -4 14 -10z"/>
<path d="M6790 8366 c0 -2 7 -7 16 -10 8 -3 12 -2 9 4 -6 10 -25 14 -25 6z"/>
<path d="M7046 8361 c-3 -5 3 -7 14 -4 11 3 20 0 20 -6 0 -6 -6 -11 -12 -11
-9 0 -10 -3 -2 -8 6 -4 14 -14 17 -22 4 -8 5 1 4 20 -2 34 -27 54 -41 31z"/>
<path d="M7160 8360 c0 -5 7 -7 15 -4 8 4 15 8 15 10 0 2 -7 4 -15 4 -8 0 -15
-4 -15 -10z"/>
<path d="M7272 8356 c7 -8 15 -12 17 -11 5 6 -10 25 -20 25 -5 0 -4 -6 3 -14z"/>
<path d="M7412 8358 c-17 -17 -15 -43 6 -59 14 -11 15 -11 5 1 -19 21 -16 30
12 30 14 0 25 4 25 9 0 4 -12 6 -27 4 -27 -4 -27 -4 -9 11 11 9 15 16 10 16
-6 0 -15 -5 -22 -12z"/>
<path d="M6491 8334 c-1 -21 5 -34 15 -38 13 -5 14 -3 6 6 -5 7 -12 24 -15 38
-4 22 -4 21 -6 -6z"/>
<path d="M6538 8330 c-3 -16 -1 -30 4 -30 4 0 8 14 8 30 0 17 -2 30 -4 30 -2
0 -6 -13 -8 -30z"/>
<path d="M6772 8330 c0 -19 2 -27 5 -17 2 9 2 25 0 35 -3 9 -5 1 -5 -18z"/>
<path d="M7230 8330 c0 -16 5 -30 10 -30 6 0 10 14 10 30 0 17 -4 30 -10 30
-5 0 -10 -13 -10 -30z"/>
<path d="M7321 8339 c-1 -32 24 -58 40 -42 8 8 6 11 -7 10 -13 -2 -20 7 -25
28 -6 29 -7 29 -8 4z"/>
<path d="M6381 8347 c-2 -15 18 -45 34 -51 19 -7 45 3 45 16 0 7 -5 6 -14 -1
-18 -15 -41 -5 -54 22 -6 12 -11 18 -11 14z"/>
<path d="M7190 8340 c-12 -7 -12 -10 -1 -10 7 0 11 -6 7 -15 -3 -8 -1 -15 4
-15 6 0 10 11 10 25 0 28 0 28 -20 15z"/>
<path d="M6822 8320 c0 -14 2 -19 5 -12 2 6 2 18 0 25 -3 6 -5 1 -5 -13z"/>
<path d="M6230 8316 c0 -8 4 -17 9 -20 5 -4 7 3 4 14 -6 23 -13 26 -13 6z"/>
<path d="M7036 8321 c-3 -5 2 -15 12 -22 15 -12 16 -12 5 2 -7 9 -10 19 -6 22
3 4 4 7 0 7 -3 0 -8 -4 -11 -9z"/>
<path d="M7150 8316 c0 -8 4 -17 9 -20 5 -4 7 3 4 14 -6 23 -13 26 -13 6z"/>
<path d="M1575 8290 c10 -11 20 -20 23 -20 3 0 -3 9 -13 20 -10 11 -20 20 -23
20 -3 0 3 -9 13 -20z"/>
<path d="M1487 8268 c-21 -11 -22 -37 -2 -44 9 -4 15 -19 15 -36 0 -16 4 -27
10 -23 5 3 6 13 3 21 -3 9 0 20 8 25 10 6 10 9 2 9 -16 0 -17 37 -1 42 8 3 7
6 -3 10 -8 3 -23 2 -32 -4z m13 -23 c0 -8 -4 -15 -10 -15 -5 0 -10 7 -10 15 0
8 5 15 10 15 6 0 10 -7 10 -15z"/>
<path d="M1771 8218 c2 -57 2 -59 9 -23 l6 40 17 -37 c10 -21 19 -38 22 -38 2
0 13 17 24 38 l20 37 1 -37 c0 -21 5 -38 10 -38 6 0 10 27 10 60 0 73 -17 79
-43 17 l-19 -42 -21 43 c-11 23 -25 42 -29 42 -4 0 -7 -28 -7 -62z"/>
<path d="M2050 8220 c0 -57 1 -60 24 -60 36 0 56 10 56 29 0 22 -19 41 -42 41
-10 0 -18 7 -18 15 0 8 9 15 20 15 11 0 20 -7 20 -15 0 -8 5 -15 10 -15 14 0
13 23 -2 38 -7 7 -25 12 -40 12 -28 0 -28 -1 -28 -60z m65 -25 c0 -5 -10 -11
-22 -13 -16 -2 -23 2 -23 13 0 11 7 15 23 13 12 -2 22 -7 22 -13z"/>
<path d="M2350 8221 c0 -34 4 -61 10 -61 6 0 10 10 11 23 l0 22 16 -22 c22
-32 39 -29 18 3 -16 24 -16 27 1 45 21 23 8 25 -18 2 -17 -15 -18 -15 -18 10
0 14 -4 29 -10 32 -6 4 -10 -17 -10 -54z"/>
<path d="M1402 8225 c0 -16 2 -22 5 -12 2 9 2 23 0 30 -3 6 -5 -1 -5 -18z"/>
<path d="M1910 8240 c0 -6 7 -27 15 -48 15 -34 15 -38 -1 -49 -15 -11 -16 -13
-2 -13 21 0 32 16 51 73 18 52 6 66 -13 15 l-13 -33 -10 33 c-9 30 -27 44 -27
22z"/>
<path d="M2164 8238 c-5 -7 -2 -9 8 -6 8 4 21 2 29 -2 14 -9 15 -9 -37 -25 -8
-3 -14 -13 -12 -22 2 -13 14 -18 41 -20 33 -1 37 2 37 24 0 50 -45 86 -66 51z
m40 -53 c-4 -8 -12 -15 -20 -15 -8 0 -14 7 -14 15 0 8 9 15 20 15 13 0 18 -5
14 -15z"/>
<path d="M2250 8204 c0 -24 5 -44 10 -44 6 0 10 16 10 36 0 28 3 35 18 32 10
-2 19 -16 24 -38 6 -32 6 -31 5 10 -2 43 -3 45 -34 47 -33 1 -33 1 -33 -43z"/>
<path d="M2447 8243 c-15 -14 -6 -34 19 -43 30 -12 22 -34 -9 -24 -17 5 -19 3
-11 -6 16 -17 58 -8 62 12 2 12 -6 21 -23 28 -14 5 -24 14 -20 20 3 5 13 6 22
3 11 -4 14 -3 9 5 -8 13 -39 16 -49 5z"/>
<path d="M1410 8181 c0 -6 4 -13 10 -16 6 -3 7 1 4 9 -7 18 -14 21 -14 7z"/>
<path d="M1574 8148 l-19 -23 23 19 c12 11 22 21 22 23 0 8 -8 2 -26 -19z"/>
<path d="M6090 8091 c0 -5 -14 -14 -30 -21 -54 -22 -52 -81 3 -108 20 -10 27
-21 27 -43 0 -31 -26 -42 -36 -14 -6 15 -44 21 -44 7 0 -15 31 -52 45 -52 7 0
21 -7 29 -16 14 -14 18 -14 31 0 8 8 24 18 35 21 21 7 34 41 28 71 -1 9 -18
24 -35 33 -25 12 -33 23 -33 44 0 27 13 36 25 17 8 -13 45 -13 45 -1 0 5 -12
19 -27 30 -16 12 -33 25 -40 31 -15 12 -23 13 -23 1z m0 -76 c0 -26 -14 -33
-25 -15 -9 14 1 40 15 40 5 0 10 -11 10 -25z m45 -100 c0 -10 -6 -20 -12 -22
-8 -3 -13 5 -13 22 0 17 5 25 13 23 6 -3 12 -13 12 -23z"/>
<path d="M6242 8064 c-24 -17 -30 -54 -8 -54 7 0 20 10 28 22 13 20 18 21 42
10 14 -6 26 -19 26 -28 0 -8 -25 -41 -55 -73 -30 -32 -55 -63 -55 -69 0 -8 25
-12 76 -12 56 0 75 3 72 13 -3 6 -24 14 -47 17 l-43 5 27 25 c46 43 67 85 56
113 -18 46 -76 61 -119 31z"/>
<path d="M6525 8058 c-46 -40 -52 -146 -11 -187 26 -25 94 -20 117 8 26 32 24
73 -4 99 -24 23 -71 30 -82 12 -14 -22 -23 -8 -14 20 9 23 17 30 38 30 15 0
32 -5 38 -11 6 -6 19 -9 29 -7 17 3 16 6 -8 31 -33 33 -68 35 -103 5z m73
-100 c34 -34 -6 -90 -48 -68 -35 19 -20 80 20 80 9 0 21 -5 28 -12z"/>
<path d="M6717 8068 c-67 -51 -16 -163 59 -129 33 15 40 8 26 -24 -13 -29 -52
-34 -72 -10 -16 19 -40 19 -40 1 0 -41 63 -65 108 -42 59 30 69 148 17 193
-29 25 -72 30 -98 11z m79 -43 c16 -24 16 -27 -1 -45 -10 -11 -24 -20 -31 -20
-17 0 -44 28 -44 45 0 18 28 45 45 45 8 0 22 -11 31 -25z"/>
<path d="M6923 8070 c-12 -5 -24 -18 -28 -29 -7 -24 2 -61 16 -61 5 0 0 -13
-12 -30 -19 -25 -21 -33 -11 -55 35 -77 183 -40 153 38 -5 14 -16 27 -23 29
-10 4 -9 10 5 25 24 27 21 48 -9 72 -28 22 -55 25 -91 11z m65 -32 c18 -18 15
-36 -9 -48 -24 -13 -49 2 -49 30 0 28 37 39 58 18z m12 -107 c11 -21 -9 -51
-35 -51 -14 0 -45 26 -45 39 0 32 64 41 80 12z"/>
<path d="M7168 8063 c-16 -10 -28 -26 -28 -36 0 -18 1 -18 25 -3 l25 16 0 -90
c0 -84 1 -90 20 -90 20 0 21 5 18 107 -3 119 -9 128 -60 96z"/>
<path d="M7313 8065 c-27 -19 -37 -55 -14 -55 9 0 22 9 29 20 7 11 19 20 26
20 17 0 46 -27 46 -41 0 -6 -25 -36 -55 -68 -30 -32 -55 -63 -55 -69 0 -8 25
-12 76 -12 56 0 75 3 72 13 -3 6 -26 14 -52 17 l-47 5 45 45 c36 34 46 51 46
77 0 54 -68 83 -117 48z"/>
<path d="M7083 7884 c-8 -21 13 -42 28 -27 13 13 5 43 -11 43 -6 0 -13 -7 -17
-16z"/>
<path d="M6416 7849 c-4 -23 -4 -44 -1 -47 11 -11 27 16 28 48 3 49 -19 48
-27 -1z"/>
<path d="M1411 7696 c-8 -9 -11 -45 -8 -103 l3 -88 2 91 c1 54 7 95 14 102 7
7 9 12 6 12 -3 0 -11 -6 -17 -14z"/>
<path d="M1760 7660 c0 -5 9 -10 20 -10 17 0 20 -7 20 -50 0 -27 5 -50 10 -50
6 0 10 23 10 50 0 38 4 50 15 50 8 0 15 5 15 10 0 6 -20 10 -45 10 -25 0 -45
-4 -45 -10z"/>
<path d="M2460 7660 c0 -5 5 -10 10 -10 6 0 10 5 10 10 0 6 -4 10 -10 10 -5 0
-10 -4 -10 -10z"/>
<path d="M2740 7610 c0 -33 4 -60 10 -60 6 0 10 11 10 25 0 21 5 25 30 25 25
0 30 -4 30 -25 0 -14 5 -25 10 -25 6 0 10 24 10 54 0 30 -4 58 -10 61 -6 4
-10 -5 -10 -19 0 -22 -4 -26 -30 -26 -25 0 -30 4 -30 25 0 14 -4 25 -10 25 -6
0 -10 -27 -10 -60z"/>
<path d="M2865 7660 c3 -5 8 -10 11 -10 2 0 4 5 4 10 0 6 -5 10 -11 10 -5 0
-7 -4 -4 -10z"/>
<path d="M2402 7648 c-17 -21 0 -92 23 -96 16 -3 18 -1 8 9 -15 15 -17 56 -4
61 5 2 4 11 -3 21 -11 13 -16 15 -24 5z"/>
<path d="M2997 7647 c-2 -7 -2 -30 2 -52 5 -29 12 -41 26 -43 15 -2 17 -1 6 6
-9 7 -12 21 -9 43 6 37 1 59 -12 59 -4 0 -10 -6 -13 -13z"/>
<path d="M1865 7631 c-10 -9 -5 -81 5 -81 6 0 10 14 10 30 0 18 6 33 15 36 8
4 15 9 15 13 0 7 -38 9 -45 2z"/>
<path d="M1943 7633 c-23 -9 -14 -20 12 -15 15 2 25 0 25 -7 0 -6 -8 -11 -19
-11 -22 0 -45 -25 -36 -39 3 -6 21 -10 40 -9 32 1 35 4 35 33 0 45 -22 63 -57
48z m37 -53 c0 -12 -28 -25 -36 -17 -9 9 6 27 22 27 8 0 14 -5 14 -10z"/>
<path d="M2020 7593 c0 -23 5 -43 10 -43 6 0 10 16 10 36 0 28 3 35 18 32 11
-2 18 -14 20 -36 4 -38 22 -44 22 -6 0 42 -17 63 -50 62 -29 -1 -30 -3 -30
-45z"/>
<path d="M2133 7633 c-22 -8 -14 -33 12 -43 35 -13 33 -34 -2 -25 -21 5 -25 4
-17 -5 16 -17 58 -8 62 12 2 12 -5 19 -22 24 -26 6 -32 15 -19 27 3 4 13 1 21
-6 13 -10 14 -9 10 3 -5 16 -25 22 -45 13z"/>
<path d="M2220 7630 c-16 -10 -8 -14 23 -11 25 3 21 -17 -5 -21 -15 -2 -24
-11 -26 -25 -3 -20 1 -22 32 -21 33 1 36 4 36 33 0 47 -26 67 -60 45z m40 -49
c0 -14 -18 -23 -30 -16 -6 4 -8 11 -5 16 8 12 35 12 35 0z"/>
<path d="M2316 7624 c-20 -19 -20 -48 -1 -64 18 -15 47 -10 53 10 4 13 3 13
-11 2 -21 -18 -37 -7 -37 25 0 23 3 25 33 19 30 -5 31 -5 13 9 -25 19 -31 19
-50 -1z"/>
<path d="M2460 7596 c0 -25 5 -46 10 -46 6 0 10 18 10 39 0 22 -4 43 -10 46
-6 4 -10 -12 -10 -39z"/>
<path d="M2510 7626 c-16 -20 -9 -56 13 -70 39 -24 79 44 41 71 -23 17 -39 16
-54 -1z m48 -33 c-2 -17 -9 -28 -18 -28 -9 0 -16 11 -18 28 -3 22 1 27 18 27
17 0 21 -5 18 -27z"/>
<path d="M2600 7593 c0 -24 5 -43 10 -43 6 0 10 16 10 36 0 28 3 35 18 32 11
-2 18 -14 20 -36 4 -43 22 -41 22 2 0 39 -12 51 -52 51 -26 0 -28 -3 -28 -42z"/>
<path d="M2867 7633 c-11 -10 -8 -83 3 -83 6 0 10 20 10 45 0 46 -2 50 -13 38z"/>
<path d="M2917 7633 c-16 -15 -6 -41 18 -47 14 -4 23 -11 20 -17 -4 -5 -15 -7
-26 -4 -11 4 -19 2 -19 -5 0 -6 12 -10 27 -8 38 4 43 35 8 48 -31 12 -25 30 8
23 18 -4 19 -3 7 6 -17 12 -34 14 -43 4z"/>
<path d="M3066 7625 c-19 -19 -20 -29 -6 -56 15 -27 58 -25 69 4 18 44 -31 84
-63 52z m51 -21 c7 -19 -20 -49 -36 -40 -12 8 -15 39 -4 49 12 12 33 7 40 -9z"/>
<path d="M3161 7590 l1 -45 8 35 c5 19 13 36 19 38 18 6 12 18 -9 18 -17 0
-20 -7 -19 -46z"/>
<path d="M3220 7631 c0 -5 7 -27 14 -50 14 -37 13 -41 -2 -50 -15 -9 -14 -10
5 -11 16 0 25 10 37 47 20 59 19 90 -1 43 l-15 -35 -13 33 c-13 31 -25 42 -25
23z"/>
<path d="M1449 7517 c17 -22 35 -21 52 1 13 16 12 16 -4 3 -16 -13 -22 -13
-40 -1 -20 12 -21 12 -8 -3z"/>
<path d="M1576 7073 l-20 -27 27 20 c14 10 27 22 27 27 0 15 -16 6 -34 -20z"/>
<path d="M1430 7065 c-13 -14 -22 -27 -19 -29 2 -2 14 10 27 25 29 36 24 38
-8 4z"/>
<path d="M2952 7043 c-11 -22 -3 -103 9 -103 5 0 9 16 9 35 0 21 5 35 13 35 8
0 8 3 -2 9 -12 8 -12 12 -2 25 11 13 11 16 -2 16 -9 0 -20 -8 -25 -17z"/>
<path d="M1771 6993 c0 -45 2 -53 9 -35 5 12 18 22 28 22 27 0 45 25 37 50 -5
15 -15 20 -41 20 l-34 0 1 -57z m57 24 c4 -20 -25 -34 -40 -19 -15 15 -1 44
19 40 10 -2 19 -11 21 -21z"/>
<path d="M2397 7038 c-2 -7 -2 -31 2 -53 5 -30 11 -40 26 -42 11 -2 14 0 8 3
-15 6 -18 60 -4 66 4 2 0 11 -9 21 -13 14 -19 15 -23 5z"/>
<path d="M2508 7043 c19 -4 22 -11 22 -54 0 -27 5 -49 10 -49 6 0 10 22 10 49
0 43 3 50 23 54 12 2 -3 4 -33 4 -30 0 -45 -2 -32 -4z"/>
<path d="M1483 7023 c-4 -9 -1 -19 5 -21 7 -2 12 -10 12 -18 0 -9 -4 -12 -10
-9 -5 3 -10 2 -10 -3 0 -17 28 -21 47 -6 15 12 16 13 1 8 -15 -5 -17 0 -14 30
3 38 -19 51 -31 19z"/>
<path d="M6180 7025 c0 -8 7 -15 15 -15 8 0 15 7 15 15 0 8 -7 15 -15 15 -8 0
-15 -7 -15 -15z"/>
<path d="M1888 7023 c-10 -3 -18 -9 -18 -14 0 -5 11 -7 25 -3 15 4 25 2 25 -4
0 -6 -10 -12 -22 -14 -15 -2 -24 -11 -26 -25 -3 -20 1 -23 32 -23 34 0 36 2
36 35 0 36 -20 55 -52 48z m32 -53 c0 -12 -28 -25 -36 -17 -9 9 6 27 22 27 8
0 14 -5 14 -10z"/>
<path d="M2073 7022 c-19 -3 -23 -10 -23 -43 0 -47 17 -52 22 -6 4 45 32 43
37 -3 l4 -35 6 35 c8 46 35 48 39 3 2 -18 8 -33 13 -33 6 0 9 17 7 38 -3 34
-6 37 -34 38 -17 1 -35 3 -40 6 -5 2 -19 2 -31 0z"/>
<path d="M2215 7016 c-26 -19 -16 -70 14 -74 13 -2 28 2 35 8 8 9 4 10 -16 5
-22 -6 -28 -4 -28 9 0 11 9 16 30 16 27 0 29 2 21 19 -14 25 -36 32 -56 17z
m40 -16 c3 -5 -3 -10 -14 -10 -12 0 -21 5 -21 10 0 6 6 10 14 10 8 0 18 -4 21
-10z"/>
<path d="M2323 7022 c-20 -3 -23 -9 -22 -45 1 -43 3 -42 13 6 9 41 36 35 36
-8 0 -19 5 -35 10 -35 15 0 12 77 -2 82 -7 2 -23 2 -35 0z"/>
<path d="M2618 7023 c-14 -4 -18 -14 -17 -46 1 -43 3 -42 13 5 3 14 14 28 24
30 9 2 13 6 7 9 -5 3 -18 4 -27 2z"/>
<path d="M2674 7014 c-18 -13 -17 -14 9 -8 16 4 27 2 27 -4 0 -6 -10 -12 -22
-14 -15 -2 -24 -11 -26 -25 -3 -20 1 -23 32 -23 34 0 36 2 36 35 0 43 -27 62
-56 39z m36 -49 c0 -8 -6 -15 -14 -15 -20 0 -29 17 -14 23 22 9 28 7 28 -8z"/>
<path d="M2867 7019 c-24 -14 -21 -27 8 -41 34 -15 32 -32 -2 -23 -21 5 -25 4
-17 -5 16 -17 58 -8 62 12 2 12 -5 19 -22 24 -14 3 -26 11 -26 16 0 6 11 7 25
4 29 -7 33 -1 7 13 -11 6 -24 6 -35 0z"/>
<path d="M3016 7017 c-12 -9 -17 -23 -14 -42 3 -26 8 -30 36 -33 18 -2 32 1
32 8 0 6 -10 8 -25 4 -19 -5 -25 -2 -25 10 0 11 9 16 31 16 34 0 35 15 3 37
-17 11 -23 11 -38 0z m39 -17 c3 -5 -3 -10 -14 -10 -12 0 -21 5 -21 10 0 6 6
10 14 10 8 0 18 -4 21 -10z"/>
<path d="M4300 6945 c0 -69 3 -85 15 -85 10 0 15 10 15 30 0 23 4 30 20 30 12
0 26 -12 35 -30 9 -16 22 -30 30 -30 19 0 19 10 -1 38 -15 21 -15 25 0 41 41
45 8 91 -65 91 l-49 0 0 -85z m90 50 c19 -23 4 -45 -30 -45 -25 0 -30 4 -30
23 0 13 3 27 7 30 11 12 40 8 53 -8z"/>
<path d="M1402 6995 c0 -16 2 -22 5 -12 2 9 2 23 0 30 -3 6 -5 -1 -5 -18z"/>
<path d="M1960 7014 c0 -4 5 -24 12 -46 10 -33 9 -41 -3 -49 -11 -7 -11 -9 4
-9 11 0 23 13 31 33 22 54 28 77 18 77 -5 0 -14 -15 -19 -32 l-11 -33 -7 33
c-4 17 -11 32 -16 32 -5 0 -9 -3 -9 -6z"/>
<path d="M2750 6979 c0 -47 17 -52 22 -7 2 22 9 34 21 36 14 3 17 -4 17 -32 0
-20 5 -36 11 -36 6 0 9 16 7 38 -3 35 -5 37 -40 39 -38 1 -38 1 -38 -38z"/>
<path d="M3100 6980 c0 -22 5 -40 10 -40 6 0 10 15 10 34 0 24 5 36 18 39 10
3 6 5 -10 6 -26 1 -28 -2 -28 -39z"/>
<path d="M5050 7005 c0 -8 -4 -15 -10 -15 -5 0 -10 -7 -10 -15 0 -8 5 -15 10
-15 6 0 10 -20 10 -45 0 -48 22 -72 50 -55 12 7 12 10 -3 16 -24 9 -24 79 1
93 16 9 16 10 0 16 -10 4 -18 13 -18 21 0 8 -7 14 -15 14 -8 0 -15 -7 -15 -15z"/>
<path d="M5200 7005 c0 -8 -4 -15 -10 -15 -5 0 -10 -7 -10 -15 0 -8 4 -15 9
-15 6 0 11 -21 13 -47 3 -44 5 -48 31 -51 15 -2 27 1 27 7 0 6 -7 11 -15 11
-11 0 -15 11 -15 39 0 25 5 41 15 45 8 3 15 10 15 16 0 5 -7 10 -15 10 -8 0
-15 7 -15 15 0 8 -7 15 -15 15 -8 0 -15 -7 -15 -15z"/>
<path d="M6100 7005 c0 -8 -4 -15 -10 -15 -5 0 -10 -7 -10 -15 0 -8 5 -15 10
-15 6 0 10 -22 10 -49 0 -40 3 -50 20 -54 21 -5 42 14 22 21 -16 5 -15 74 1
91 10 11 10 14 0 18 -7 3 -13 11 -13 19 0 8 -7 14 -15 14 -8 0 -15 -7 -15 -15z"/>
<path d="M4470 6970 c-27 -27 -25 -66 5 -95 27 -28 33 -29 69 -15 40 15 32 31
-13 24 -30 -5 -39 -3 -44 10 -5 13 1 16 37 16 52 0 58 5 45 38 -18 47 -64 57
-99 22z m70 -21 c0 -5 -15 -9 -32 -9 -31 1 -32 2 -15 15 19 14 47 10 47 -6z"/>
<path d="M4617 6972 c-20 -22 -22 -71 -3 -97 18 -24 74 -25 92 0 18 25 9 31
-20 15 -34 -18 -56 -7 -56 28 0 42 24 60 50 37 27 -24 44 -16 25 13 -20 27
-65 29 -88 4z"/>
<path d="M4756 6968 c-20 -28 -20 -68 -2 -93 17 -23 71 -24 93 -2 15 15 13 16
-27 14 -27 -1 -44 3 -47 11 -3 8 9 12 41 12 42 0 46 2 46 23 0 53 -75 77 -104
35z m58 -4 c27 -10 18 -24 -15 -24 -27 0 -30 2 -19 15 14 17 13 17 34 9z"/>
<path d="M4890 6925 c0 -50 3 -65 14 -65 11 0 16 14 18 48 3 40 6 47 26 50 20
3 22 0 22 -47 0 -44 3 -51 20 -51 17 0 20 7 20 43 0 68 -43 110 -78 75 -9 -9
-12 -9 -12 0 0 7 -7 12 -15 12 -12 0 -15 -14 -15 -65z"/>
<path d="M5290 6923 c0 -49 3 -63 15 -63 11 0 15 12 15 50 0 43 3 50 20 50 11
0 20 6 20 14 0 10 -11 14 -35 13 l-35 -1 0 -63z"/>
<path d="M5394 6976 c-26 -20 -10 -32 21 -16 20 11 28 11 38 1 15 -15 -6 -31
-40 -31 -26 0 -43 -25 -36 -51 5 -18 22 -25 53 -20 8 1 25 2 38 2 20 -1 22 4
22 48 0 73 -45 104 -96 67z m64 -73 c-4 -21 -36 -29 -51 -14 -7 7 -3 13 14 20
35 14 41 13 37 -6z"/>
<path d="M5520 6925 c0 -50 3 -65 14 -65 11 0 16 14 18 48 3 43 5 47 28 47 23
0 25 -4 28 -47 2 -34 7 -48 18 -48 20 0 19 93 -2 114 -18 19 -45 21 -62 4 -9
-9 -12 -9 -12 0 0 7 -7 12 -15 12 -12 0 -15 -14 -15 -65z"/>
<path d="M5680 6975 c-19 -23 -7 -49 28 -61 41 -13 38 -30 -5 -27 -39 3 -43
-14 -8 -27 29 -11 73 2 81 25 8 19 -13 45 -35 45 -28 0 -47 18 -35 30 9 9 17
8 32 -1 25 -16 40 -5 22 16 -16 19 -64 20 -80 0z"/>
<path d="M5823 6983 c-7 -2 -13 -12 -13 -20 0 -10 5 -13 18 -8 28 12 45 11 49
-2 3 -7 -12 -16 -36 -23 -34 -9 -41 -15 -41 -35 0 -31 25 -44 73 -38 l37 5 0
52 c0 29 -5 57 -12 64 -12 12 -52 15 -75 5z m55 -80 c-4 -23 -48 -31 -48 -9 0
13 14 21 43 25 5 0 7 -7 5 -16z"/>
<path d="M5956 6968 c-20 -28 -20 -68 -2 -93 17 -23 71 -24 93 -2 21 21 8 35
-17 19 -38 -24 -60 -10 -60 38 0 27 34 44 50 25 13 -16 40 -20 40 -7 0 5 -8
16 -18 25 -26 24 -68 21 -86 -5z"/>
<path d="M6180 6925 c0 -51 3 -65 15 -65 12 0 15 14 15 65 0 51 -3 65 -15 65
-12 0 -15 -14 -15 -65z"/>
<path d="M6257 6972 c-20 -22 -22 -71 -3 -97 16 -23 71 -25 92 -3 21 21 21 74
-1 98 -23 25 -67 26 -88 2z m62 -16 c7 -8 11 -27 9 -43 -2 -22 -8 -28 -28 -28
-20 0 -26 6 -28 28 -3 27 12 57 28 57 4 0 13 -6 19 -14z"/>
<path d="M6390 6925 c0 -50 3 -65 14 -65 11 0 16 14 18 48 3 43 5 47 28 47 23
0 25 -4 28 -47 2 -34 7 -48 18 -48 17 0 20 80 4 111 -12 21 -50 25 -68 7 -9
-9 -12 -9 -12 0 0 7 -7 12 -15 12 -12 0 -15 -14 -15 -65z"/>
<path d="M6550 6975 c-19 -23 -7 -49 28 -61 41 -13 38 -30 -5 -27 -39 3 -43
-14 -8 -27 47 -18 103 22 76 54 -6 7 -25 16 -41 20 -17 3 -30 10 -30 16 0 16
30 24 43 11 15 -15 27 -14 27 3 0 27 -69 36 -90 11z"/>
<path d="M10765 6970 c12 -41 27 -60 20 -25 -4 17 -11 35 -17 40 -7 7 -8 2 -3
-15z"/>
<path d="M1567 6925 c-15 -14 -24 -25 -19 -25 5 0 19 11 32 25 30 32 23 32
-13 0z"/>
<path d="M1420 6936 c0 -2 8 -10 18 -17 15 -13 16 -12 3 4 -13 16 -21 21 -21
13z"/>
<path d="M1493 6893 c9 -2 23 -2 30 0 6 3 -1 5 -18 5 -16 0 -22 -2 -12 -5z"/>
<path d="M1416 6472 c-2 -4 14 -6 37 -4 68 5 76 10 20 11 -28 0 -54 -2 -57 -7z"/>
<path d="M1580 6460 c0 -5 -8 -10 -17 -11 -14 0 -15 -2 -3 -6 8 -3 17 -9 20
-13 3 -4 10 -2 16 4 8 9 7 15 -3 24 -8 8 -13 9 -13 2z"/>
<path d="M1402 6385 c2 -63 2 -64 5 -17 l4 52 57 2 57 2 -55 3 c-30 3 -58 10
-62 16 -4 7 -7 -19 -6 -58z"/>
<path d="M1769 6414 c-10 -28 -3 -64 15 -76 17 -11 64 -9 71 3 11 17 -2 21
-23 8 -40 -25 -68 25 -38 67 13 17 18 17 36 6 23 -14 36 -10 25 7 -3 6 -22 11
-41 11 -28 0 -36 -5 -45 -26z"/>
<path d="M2480 6385 l0 -56 38 3 37 3 0 50 0 50 -37 3 -38 3 0 -56z m55 25 c0
-8 -8 -16 -17 -18 -13 -2 -18 3 -18 18 0 15 5 20 18 18 9 -2 17 -10 17 -18z
m3 -47 c-5 -26 -38 -29 -38 -4 0 15 6 21 21 21 14 0 19 -5 17 -17z"/>
<path d="M2780 6385 c0 -30 5 -55 10 -55 6 0 10 7 10 17 0 15 1 15 18 0 27
-25 37 -21 19 7 -14 21 -15 26 -1 37 8 6 12 14 9 17 -3 3 -14 -3 -25 -13 -20
-18 -20 -17 -20 13 0 18 -4 32 -10 32 -5 0 -10 -25 -10 -55z"/>
<path d="M2378 6418 c-2 -7 -2 -29 2 -48 3 -25 11 -35 25 -37 11 -2 14 0 8 3
-16 7 -17 64 -2 64 6 0 4 7 -5 15 -18 18 -23 19 -28 3z"/>
<path d="M1892 6398 c-27 -27 -6 -68 35 -68 29 0 48 33 33 60 -12 22 -49 27
-68 8z m52 -13 c8 -21 -3 -45 -20 -45 -18 0 -28 24 -20 45 3 8 12 15 20 15 7
0 16 -7 20 -15z"/>
<path d="M1991 6366 l2 -41 6 35 c9 50 41 55 41 6 0 -20 5 -36 11 -36 6 0 9
16 7 38 -3 34 -5 37 -35 38 -32 1 -33 0 -32 -40z"/>
<path d="M2091 6366 l2 -41 6 35 c9 50 41 55 41 6 0 -20 5 -36 11 -36 6 0 9
16 7 38 -3 34 -5 37 -35 38 -32 1 -33 0 -32 -40z"/>
<path d="M2185 6391 c-11 -36 3 -61 35 -61 16 0 31 4 35 9 3 6 -7 9 -21 8 -15
-1 -29 4 -31 11 -3 8 6 12 27 12 44 0 38 34 -7 38 -24 2 -33 -1 -38 -17z m55
-1 c0 -5 -9 -10 -21 -10 -11 0 -17 5 -14 10 3 6 13 10 21 10 8 0 14 -4 14 -10z"/>
<path d="M2284 6396 c-3 -8 -4 -25 -2 -38 2 -18 10 -24 36 -26 25 -3 32 1 32
14 0 14 -3 14 -15 4 -20 -16 -39 -1 -33 26 3 13 11 18 26 17 12 -2 22 2 22 7
0 16 -60 12 -66 -4z"/>
<path d="M2590 6399 c0 -6 8 -8 19 -4 11 3 22 1 26 -5 3 -5 -2 -10 -13 -10
-23 0 -46 -25 -37 -40 3 -5 22 -10 41 -10 29 0 34 3 34 24 0 42 -11 56 -41 56
-16 0 -29 -5 -29 -11z m50 -39 c0 -13 -28 -25 -38 -16 -3 4 0 11 8 16 20 13
30 12 30 0z"/>
<path d="M2680 6370 c0 -48 17 -54 22 -7 4 45 31 43 39 -3 l6 -35 2 43 c1 42
1 42 -34 42 -34 0 -35 -1 -35 -40z"/>
<path d="M4352 6368 c-7 -7 -12 -26 -12 -43 0 -17 5 -36 12 -43 17 -17 53 -15
69 5 13 15 12 15 -9 2 -28 -18 -56 -3 -60 33 -4 34 23 56 49 40 26 -16 34 -15
19 3 -15 18 -51 20 -68 3z"/>
<path d="M4460 6325 c0 -32 2 -56 5 -53 8 8 9 98 1 105 -3 4 -6 -20 -6 -52z"/>
<path d="M4880 6322 c0 -29 4 -52 8 -52 8 0 6 90 -3 98 -3 3 -5 -18 -5 -46z"/>
<path d="M5527 6363 c-4 -3 -7 -28 -7 -55 l0 -48 35 0 c38 0 55 21 36 44 -6 7
-9 15 -6 18 3 2 -9 3 -25 0 -23 -3 -30 0 -30 12 0 23 29 32 54 16 19 -12 20
-12 7 3 -13 17 -52 23 -64 10z m61 -75 c3 -14 -3 -18 -27 -18 -29 0 -41 17
-24 34 13 13 48 1 51 -16z"/>
<path d="M5823 6315 c0 -33 1 -52 4 -42 2 9 11 17 18 17 8 0 19 -8 24 -17 6
-10 11 -13 11 -7 0 5 -6 16 -12 22 -10 10 -10 17 1 35 13 21 13 22 -6 5 -27
-25 -31 -23 -36 15 -2 17 -4 5 -4 -28z"/>
<path d="M6062 6353 c-4 -10 -5 -36 -1 -58 l6 -40 2 38 c0 22 6 37 14 37 8 0
7 4 -3 10 -13 9 -13 11 0 20 9 6 11 10 3 10 -7 0 -16 -8 -21 -17z"/>
<path d="M6173 6315 c-12 -30 -17 -55 -13 -55 4 0 10 7 14 15 6 18 56 20 56 3
0 -6 2 -9 5 -6 3 3 1 16 -4 29 -5 13 -10 18 -10 12 -1 -14 -41 -18 -41 -5 0 5
7 17 15 28 10 13 14 15 15 5 0 -8 2 -12 5 -9 7 7 -5 38 -15 38 -4 0 -16 -25
-27 -55z"/>
<path d="M7070 6362 c0 -5 14 -7 30 -4 17 2 30 6 30 8 0 2 -13 4 -30 4 -16 0
-30 -4 -30 -8z"/>
<path d="M7461 6313 c1 -32 4 -48 6 -36 3 15 13 23 30 25 15 2 28 9 29 16 1 7
0 8 -3 2 -2 -5 -16 -10 -29 -10 -19 0 -24 5 -24 25 0 28 26 34 49 13 11 -11
13 -10 9 2 -3 8 -19 16 -36 18 l-32 3 1 -58z"/>
<path d="M7563 6315 c0 -33 2 -45 4 -27 2 18 2 45 0 60 -2 15 -4 0 -4 -33z"/>
<path d="M8190 6316 c0 -55 0 -56 29 -56 17 0 32 4 35 8 3 5 -8 6 -25 4 -25
-4 -29 -1 -29 18 0 19 4 22 29 18 17 -2 28 -1 25 4 -3 4 -16 8 -30 8 -17 0
-24 5 -24 20 0 25 35 27 50 3 10 -16 10 -16 8 2 -2 14 -12 21 -36 23 l-32 3 0
-55z"/>
<path d="M7358 6347 c-7 -22 7 -80 20 -83 7 -1 8 0 2 3 -12 6 -13 60 -1 65 5
2 3 8 -4 15 -10 9 -14 9 -17 0z"/>
<path d="M8493 6310 c-1 -30 1 -47 4 -37 2 9 7 17 10 17 4 0 15 -8 27 -17 19
-18 19 -18 3 6 -13 19 -14 28 -5 40 10 13 10 14 -2 4 -21 -19 -28 -16 -33 15
-2 15 -4 2 -4 -28z"/>
<path d="M4503 6339 c10 -6 17 -23 18 -42 1 -18 3 -24 6 -14 8 30 -6 67 -25
67 -16 -1 -16 -1 1 -11z"/>
<path d="M4566 6342 c-3 -5 5 -7 19 -5 21 5 24 1 28 -33 l4 -39 -1 40 c-1 33
-5 41 -23 43 -11 2 -24 -1 -27 -6z"/>
<path d="M4670 6346 c0 -2 9 -6 20 -9 11 -3 18 -1 14 4 -5 9 -34 13 -34 5z"/>
<path d="M7697 6344 c-11 -11 3 -24 18 -18 8 4 12 10 9 15 -6 11 -18 12 -27 3z"/>
<path d="M4650 6331 c0 -6 4 -13 10 -16 6 -3 7 1 4 9 -7 18 -14 21 -14 7z"/>
<path d="M5636 6332 c-3 -5 5 -7 19 -5 21 5 24 1 28 -33 l4 -39 -1 40 c-1 33
-5 41 -23 43 -11 2 -24 -1 -27 -6z"/>
<path d="M5762 6328 c9 -7 19 -26 21 -43 3 -21 4 -18 3 10 -1 31 -5 41 -21 43
-18 4 -19 3 -3 -10z"/>
<path d="M5966 6331 c-3 -4 5 -6 18 -4 18 4 26 0 31 -17 4 -12 9 -19 12 -17 2
3 0 15 -7 26 -11 21 -44 29 -54 12z"/>
<path d="M6312 6328 c9 -7 19 -26 21 -43 3 -21 4 -18 3 10 -1 31 -5 41 -21 43
-18 4 -19 3 -3 -10z"/>
<path d="M6362 6334 c11 -3 18 -19 21 -42 l4 -37 -1 40 c-1 32 -5 40 -21 42
-15 1 -15 0 -3 -3z"/>
<path d="M6430 6326 c-6 -8 -10 -25 -8 -38 2 -17 10 -23 31 -24 23 -1 24 -1 3
3 -20 3 -24 9 -22 31 4 32 25 41 43 16 7 -10 13 -13 13 -8 0 14 -21 34 -36 34
-6 0 -17 -7 -24 -14z"/>
<path d="M6520 6301 c0 -23 2 -41 4 -41 8 0 12 71 4 76 -4 3 -8 -13 -8 -35z"/>
<path d="M6583 6300 c0 -25 2 -35 4 -22 2 12 2 32 0 45 -2 12 -4 2 -4 -23z"/>
<path d="M6628 6315 c-8 -19 -8 -28 2 -40 14 -16 46 -20 54 -6 3 4 -5 6 -18 4
-28 -6 -40 9 -31 38 5 16 13 20 31 16 13 -2 21 0 18 4 -11 18 -45 8 -56 -16z"/>
<path d="M6726 6332 c-3 -5 5 -7 19 -5 21 5 24 1 28 -33 l4 -39 -1 40 c-1 33
-5 41 -23 43 -11 2 -24 -1 -27 -6z"/>
<path d="M7163 6300 c0 -25 2 -35 4 -22 2 12 2 32 0 45 -2 12 -4 2 -4 -23z"/>
<path d="M7200 6298 c0 -49 5 -47 13 5 3 20 2 37 -4 37 -5 0 -9 -19 -9 -42z"/>
<path d="M7276 6331 c-4 -5 3 -7 14 -4 23 6 26 13 6 13 -8 0 -17 -4 -20 -9z"/>
<path d="M7616 6332 c-3 -5 5 -8 17 -8 17 1 22 -5 22 -26 0 -15 4 -30 8 -34 9
-9 9 38 1 60 -6 17 -39 22 -48 8z"/>
<path d="M7898 6330 c13 -6 22 -18 22 -30 0 -12 -9 -24 -22 -30 l-23 -9 22 0
c16 -1 24 6 29 24 7 29 -10 55 -35 54 -11 0 -9 -3 7 -9z"/>
<path d="M7964 6300 c1 -26 6 -35 19 -36 11 -1 12 0 3 3 -8 2 -17 19 -19 36
-4 31 -4 31 -3 -3z"/>
<path d="M8067 6333 c-15 -14 -6 -33 18 -39 26 -6 32 -19 15 -27 -6 -3 -5 -4
2 -3 23 4 19 26 -6 36 -30 11 -34 26 -8 33 14 4 14 5 1 6 -9 0 -19 -2 -22 -6z"/>
<path d="M8307 6333 c-3 -5 5 -8 18 -8 13 0 21 3 18 8 -2 4 -10 7 -18 7 -8 0
-16 -3 -18 -7z"/>
<path d="M8393 6300 c0 -25 2 -35 4 -22 2 12 2 32 0 45 -2 12 -4 2 -4 -23z"/>
<path d="M8432 6326 c7 -8 15 -12 17 -11 5 6 -10 25 -20 25 -5 0 -4 -6 3 -14z"/>
<path d="M1596 6313 c-6 -14 -5 -15 5 -6 7 7 10 15 7 18 -3 3 -9 -2 -12 -12z"/>
<path d="M4742 6310 c0 -14 2 -19 5 -12 2 6 2 18 0 25 -3 6 -5 1 -5 -13z"/>
<path d="M5720 6295 c0 -19 2 -35 4 -35 2 0 6 16 8 35 2 19 0 35 -4 35 -4 0
-8 -16 -8 -35z"/>
<path d="M7811 6314 c0 -11 3 -14 6 -6 3 7 2 16 -1 19 -3 4 -6 -2 -5 -13z"/>
<path d="M7070 6311 c0 -4 11 -6 25 -3 14 2 25 6 25 8 0 2 -11 4 -25 4 -14 0
-25 -4 -25 -9z"/>
<path d="M4560 6290 c0 -11 4 -20 8 -20 4 0 8 9 8 20 0 11 -4 20 -8 20 -4 0
-8 -9 -8 -20z"/>
<path d="M4689 6302 c7 -5 10 -15 7 -21 -4 -6 -2 -11 4 -11 17 0 8 33 -10 37
-12 4 -13 3 -1 -5z"/>
<path d="M5951 6300 c-2 -31 48 -55 63 -31 3 4 -6 6 -19 3 -19 -3 -27 1 -34
19 -6 14 -10 18 -10 9z"/>
<path d="M7290 6298 c35 -17 36 -18 20 -28 -9 -6 -10 -10 -3 -10 16 0 27 20
17 30 -5 4 -20 11 -34 14 l-25 6 25 -12z"/>
<path d="M8345 6290 c2 -31 15 -37 15 -7 0 15 -4 27 -8 27 -5 0 -8 -9 -7 -20z"/>
<path d="M5630 6280 c0 -11 4 -20 8 -20 4 0 8 9 8 20 0 11 -4 20 -8 20 -4 0
-8 -9 -8 -20z"/>
<path d="M6720 6280 c0 -11 4 -20 8 -20 4 0 8 9 8 20 0 11 -4 20 -8 20 -4 0
-8 -9 -8 -20z"/>
<path d="M7605 6290 c-8 -13 3 -30 18 -30 7 0 6 4 -3 10 -13 9 -13 11 0 20 9
6 10 10 3 10 -6 0 -15 -4 -18 -10z"/>
<path d="M8294 6289 c-3 -6 -2 -15 3 -20 5 -5 9 -1 9 11 0 23 -2 24 -12 9z"/>
<path d="M7790 6280 c-11 -7 -12 -12 -4 -20 8 -8 13 -6 17 9 3 12 4 21 4 21
-1 0 -9 -5 -17 -10z"/>
<path d="M7861 6274 c0 -11 3 -14 6 -6 3 7 2 16 -1 19 -3 4 -6 -2 -5 -13z"/>
<path d="M7710 6270 c0 -5 5 -10 11 -10 5 0 7 5 4 10 -3 6 -8 10 -11 10 -2 0
-4 -4 -4 -10z"/>
<path d="M4290 6135 c0 -13 44 -15 335 -15 184 0 335 4 335 8 0 11 -233 22
-477 22 -165 0 -193 -2 -193 -15z"/>
<path d="M4655 5541 c-89 -40 -137 -134 -116 -225 24 -105 100 -161 207 -154
52 3 70 9 101 34 122 97 105 277 -31 340 -61 28 -107 30 -161 5z m56 -131 c20
-11 27 -40 9 -40 -5 0 -10 4 -10 9 0 15 -32 22 -46 10 -19 -15 -18 -53 1 -69
13 -10 19 -10 33 4 23 20 32 20 32 1 0 -16 -30 -35 -54 -35 -24 0 -56 37 -56
65 0 28 32 65 56 65 8 0 24 -5 35 -10z m108 1 c7 -5 15 -29 17 -54 5 -51 -10
-67 -60 -67 -25 0 -26 2 -26 65 0 64 0 65 28 65 15 0 33 -4 41 -9z"/>
<path d="M4770 5386 c0 -10 9 -16 21 -16 24 0 21 23 -4 28 -10 2 -17 -3 -17
-12z"/>
<path d="M4770 5329 c0 -25 33 -22 38 4 2 12 -3 17 -17 17 -15 0 -21 -6 -21
-21z"/>
<path d="M5163 5505 c-39 -27 -38 -101 1 -127 19 -13 64 -9 80 8 22 21 9 40
-13 20 -36 -33 -71 -12 -71 41 0 45 48 66 71 30 4 -5 12 -8 18 -6 18 6 -9 37
-39 44 -15 3 -34 0 -47 -10z"/>
<path d="M5290 5446 c0 -80 17 -106 22 -33 2 34 7 42 23 42 16 0 21 -8 23 -42
4 -56 22 -55 22 1 0 53 -21 77 -51 58 -17 -11 -19 -9 -19 12 0 14 -4 28 -10
31 -6 4 -10 -22 -10 -69z"/>
<path d="M5818 5514 c-5 -4 -8 -38 -8 -76 l0 -68 43 0 c24 0 48 5 55 12 17 17
15 47 -3 54 -13 5 -13 8 0 21 19 18 19 27 1 42 -18 15 -79 25 -88 15z m61 -23
c19 -12 6 -41 -19 -41 -15 0 -20 7 -20 25 0 26 14 31 39 16z m16 -81 c0 -9
-11 -16 -27 -18 -23 -3 -28 1 -28 18 0 17 5 21 28 18 16 -2 27 -9 27 -18z"/>
<path d="M6190 5440 c0 -40 4 -70 10 -70 6 0 10 9 10 20 0 26 15 25 34 -1 8
-12 20 -19 26 -17 7 2 4 14 -10 31 l-22 28 23 25 c18 20 19 24 6 24 -9 0 -21
-9 -27 -20 -16 -31 -30 -24 -30 15 0 19 -4 35 -10 35 -6 0 -10 -30 -10 -70z"/>
<path d="M5420 5465 c-11 -13 -9 -15 18 -13 40 4 45 -15 6 -22 -23 -4 -29 -10
-29 -30 0 -23 4 -25 43 -26 l42 -2 0 42 c0 23 -5 47 -12 54 -17 17 -53 15 -68
-3z m60 -54 c0 -5 -7 -14 -15 -21 -12 -10 -19 -10 -28 -1 -9 9 -9 14 3 21 19
12 40 13 40 1z"/>
<path d="M5543 5473 c-25 -9 -14 -44 17 -56 17 -6 30 -15 30 -19 0 -14 -22
-20 -33 -9 -6 6 -17 11 -25 11 -12 0 -12 -3 -2 -15 7 -8 25 -15 40 -15 35 0
57 24 40 44 -6 8 -21 16 -32 18 -12 2 -24 9 -26 17 -4 11 2 13 27 8 32 -7 43
6 15 17 -18 7 -33 7 -51 -1z"/>
<path d="M5658 5469 c-21 -12 -24 -69 -6 -87 17 -17 63 -15 78 3 10 13 7 14
-25 12 -23 -1 -40 3 -42 11 -3 8 8 12 36 12 45 0 48 5 25 38 -16 24 -39 27
-66 11z m52 -24 c0 -9 -9 -15 -25 -15 -24 0 -32 10 -18 23 12 13 43 7 43 -8z"/>
<path d="M5963 5473 c-26 -10 -12 -22 18 -16 25 5 31 3 27 -8 -2 -8 -14 -15
-26 -17 -26 -4 -46 -27 -38 -47 4 -10 18 -14 46 -13 l40 1 0 48 c0 54 -22 71
-67 52z m47 -67 c0 -17 -27 -29 -35 -16 -4 6 -3 15 0 20 9 15 35 12 35 -4z"/>
<path d="M6064 5471 c-2 -2 -4 -26 -4 -53 0 -36 4 -48 15 -48 11 0 15 11 15
40 0 28 5 43 16 47 21 8 34 -13 34 -54 0 -18 5 -33 10 -33 15 0 12 86 -3 99
-12 10 -73 11 -83 2z"/>
<path d="M10605 5430 c3 -6 13 -10 21 -10 8 0 14 -5 14 -11 0 -7 -11 -9 -26
-6 -16 3 -22 1 -16 -5 14 -14 47 -6 47 11 0 8 -10 18 -23 22 -15 6 -21 5 -17
-1z"/>
<path d="M10719 5435 c-1 -3 -2 -11 -3 -17 -1 -15 -36 -24 -36 -10 0 6 5 13
10 15 6 3 5 4 -2 3 -25 -5 -13 -31 15 -32 22 -1 27 3 27 22 0 21 -8 33 -11 19z"/>
<path d="M10770 5399 c0 -5 5 -7 10 -4 6 3 10 8 10 11 0 2 -4 4 -10 4 -5 0
-10 -5 -10 -11z"/>
<path d="M5163 5199 c-36 -13 -29 -47 12 -65 19 -8 35 -19 35 -24 0 -18 -32
-24 -52 -11 -26 16 -34 8 -13 -13 21 -20 49 -20 70 0 22 22 15 36 -26 56 -19
10 -34 24 -34 30 0 15 35 18 53 5 8 -6 12 -6 12 1 0 18 -33 30 -57 21z"/>
<path d="M5267 5193 c-14 -13 -7 -25 8 -13 17 14 45 7 45 -13 0 -7 -13 -26
-30 -42 -42 -40 -39 -55 10 -55 22 0 40 5 40 10 0 6 -14 10 -31 10 l-31 0 31
35 c26 29 29 39 21 55 -10 19 -49 27 -63 13z"/>
<path d="M5428 5170 c-4 -26 -2 -29 26 -32 38 -4 45 -41 9 -46 -13 -2 -23 1
-23 7 0 6 -4 11 -10 11 -19 0 -10 -21 15 -32 21 -9 28 -8 45 7 11 10 20 24 20
31 0 22 -31 45 -52 38 -15 -5 -19 -2 -16 12 2 11 15 21 33 25 30 7 29 7 -6 8
-33 1 -37 -2 -41 -29z"/>
<path d="M5544 5185 c-4 -8 -1 -22 5 -29 8 -10 9 -16 1 -21 -15 -9 -12 -41 5
-55 24 -20 65 -4 65 25 0 13 -5 27 -10 30 -8 5 -7 11 1 21 18 22 3 44 -31 44
-18 0 -33 -6 -36 -15z m61 -15 c0 -8 -10 -16 -22 -18 -18 -3 -23 2 -23 18 0
16 5 21 23 18 12 -2 22 -10 22 -18z m0 -60 c0 -18 -33 -26 -47 -12 -6 6 -7 15
-3 22 10 16 50 8 50 -10z"/>
<path d="M5667 5193 c-11 -11 -8 -43 5 -43 6 0 4 -8 -6 -19 -9 -10 -14 -25
-10 -35 8 -22 50 -31 69 -16 17 14 20 46 5 55 -8 5 -7 11 1 21 18 21 3 44 -29
44 -16 0 -32 -3 -35 -7z m53 -23 c0 -21 -33 -29 -45 -10 -9 15 4 30 26 30 12
0 19 -7 19 -20z m5 -60 c0 -18 -33 -26 -47 -12 -6 6 -7 15 -3 22 10 16 50 8
50 -10z"/>
<path d="M5823 5193 c-7 -2 -13 -9 -13 -14 0 -4 7 -6 14 -3 12 5 16 -7 19 -53
l3 -58 2 68 c2 66 0 71 -25 60z"/>
<path d="M5907 5193 c-14 -13 -7 -25 8 -13 17 14 45 7 45 -13 0 -7 -13 -26
-30 -42 -42 -40 -39 -55 10 -55 22 0 40 5 40 10 0 6 -14 10 -31 10 l-31 0 31
35 c17 20 31 39 31 43 0 24 -55 43 -73 25z"/>
<path d="M5775 5091 c-3 -5 -1 -12 5 -16 5 -3 10 1 10 9 0 18 -6 21 -15 7z"/>
<path d="M5374 5075 c-3 -8 -4 -20 -2 -27 3 -7 7 -1 10 15 6 29 1 36 -8 12z"/>
<path d="M4443 4453 c12 -3 17 -16 19 -46 l1 -42 4 40 c3 22 10 43 16 47 7 4
-4 7 -23 7 -19 -1 -27 -3 -17 -6z"/>
<path d="M7430 4456 c0 -2 7 -7 16 -10 8 -3 12 -2 9 4 -6 10 -25 14 -25 6z"/>
<path d="M8850 4449 c0 -5 5 -7 10 -4 6 3 10 8 10 11 0 2 -4 4 -10 4 -5 0 -10
-5 -10 -11z"/>
<path d="M10289 4443 c-13 -17 -13 -17 6 -3 11 8 22 16 24 17 2 2 0 3 -6 3 -6
0 -17 -8 -24 -17z"/>
<path d="M4910 4410 c0 -22 3 -40 8 -40 4 0 6 18 4 40 -2 22 -6 40 -8 40 -2 0
-4 -18 -4 -40z"/>
<path d="M5995 4439 c-4 -6 -4 -13 -1 -16 3 -4 6 -1 6 6 0 7 5 9 10 6 6 -3 10
-1 10 4 0 14 -17 14 -25 0z"/>
<path d="M6390 4416 c0 -19 3 -37 8 -40 4 -2 6 13 4 35 -5 48 -12 51 -12 5z"/>
<path d="M7411 4438 c0 -9 13 -23 30 -32 26 -13 29 -13 19 -1 -7 8 -18 15 -25
15 -8 0 -16 8 -18 18 -4 15 -5 15 -6 0z"/>
<path d="M7490 4416 c0 -19 3 -37 8 -40 4 -2 6 13 4 35 -5 48 -12 51 -12 5z"/>
<path d="M9000 4430 c0 -5 5 -10 10 -10 6 0 10 5 10 10 0 6 -4 10 -10 10 -5 0
-10 -4 -10 -10z"/>
<path d="M4510 4400 c0 -16 2 -30 4 -30 2 0 6 14 8 30 3 17 1 30 -4 30 -4 0
-8 -13 -8 -30z"/>
<path d="M4669 4398 c4 -28 6 -29 9 -9 2 13 0 27 -5 32 -6 6 -7 -3 -4 -23z"/>
<path d="M4700 4415 c0 -8 4 -15 10 -15 5 0 7 7 4 15 -4 8 -8 15 -10 15 -2 0
-4 -7 -4 -15z"/>
<path d="M4952 4400 c0 -19 2 -27 5 -17 2 9 2 25 0 35 -3 9 -5 1 -5 -18z"/>
<path d="M4984 4415 c-13 -32 23 -63 40 -36 4 5 -4 7 -15 4 -19 -5 -21 -3 -17
20 6 29 1 36 -8 12z"/>
<path d="M6062 4400 c0 -19 2 -27 5 -17 2 9 2 25 0 35 -3 9 -5 1 -5 -18z"/>
<path d="M6098 4405 c2 -14 6 -25 7 -25 1 0 5 11 7 25 3 16 1 25 -7 25 -8 0
-10 -9 -7 -25z"/>
<path d="M6138 4403 c5 -21 7 -23 10 -9 2 10 0 22 -6 28 -6 6 -7 0 -4 -19z"/>
<path d="M6174 4400 c1 -18 7 -25 21 -25 22 0 33 31 17 47 -6 6 -8 0 -5 -16 4
-19 1 -26 -10 -26 -9 0 -18 10 -20 23 -3 19 -4 19 -3 -3z"/>
<path d="M6241 4407 c-1 -30 23 -47 41 -29 8 8 5 9 -10 5 -17 -4 -21 0 -25 24
l-4 28 -2 -28z"/>
<path d="M7562 4415 c-7 -9 -8 -15 -2 -15 5 0 10 -4 10 -10 0 -13 -27 -13 -33
0 -3 6 -4 5 -3 -2 1 -7 12 -14 24 -16 19 -3 22 1 22 27 0 35 0 36 -18 16z"/>
<path d="M7651 4403 c-1 -25 3 -33 17 -33 11 0 13 3 6 8 -7 4 -14 18 -17 32
-4 21 -4 20 -6 -7z"/>
<path d="M7692 4405 c0 -16 2 -22 5 -12 2 9 2 23 0 30 -3 6 -5 -1 -5 -18z"/>
<path d="M7720 4420 c0 -5 10 -15 22 -21 22 -12 22 -12 3 -20 -16 -6 -17 -8
-3 -8 28 -1 29 15 3 37 -14 12 -25 18 -25 12z"/>
<path d="M8901 4414 c0 -11 3 -14 6 -6 3 7 2 16 -1 19 -3 4 -6 -2 -5 -13z"/>
<path d="M10700 4419 c0 -5 5 -7 10 -4 6 3 10 8 10 11 0 2 -4 4 -10 4 -5 0
-10 -5 -10 -11z"/>
<path d="M6021 4411 c-1 -8 -8 -11 -20 -8 -19 5 -38 -19 -26 -31 3 -3 5 0 5 6
0 7 11 12 25 12 14 0 25 -5 25 -12 0 -6 2 -9 5 -6 3 3 1 16 -4 29 -5 13 -10
18 -10 10z"/>
<path d="M8958 4403 c7 -3 16 -2 19 1 4 3 -2 6 -13 5 -11 0 -14 -3 -6 -6z"/>
<path d="M9053 4403 c9 -2 25 -2 35 0 9 3 1 5 -18 5 -19 0 -27 -2 -17 -5z"/>
<path d="M10480 4401 c0 -4 11 -6 25 -3 14 2 25 6 25 8 0 2 -11 4 -25 4 -14 0
-25 -4 -25 -9z"/>
<path d="M4734 4392 c5 -8 -1 -12 -16 -13 -18 -1 -19 -2 -4 -6 23 -6 43 12 25
22 -8 5 -10 4 -5 -3z"/>
<path d="M4760 4392 c0 -18 29 -27 43 -13 9 9 8 11 -7 5 -11 -4 -21 -2 -27 7
-6 10 -9 11 -9 1z"/>
<path d="M8930 4388 c0 -19 34 -25 45 -8 4 6 -1 7 -10 3 -10 -3 -21 0 -26 8
-7 11 -9 11 -9 -3z"/>
<path d="M4575 4380 c-16 -7 -17 -9 -3 -9 9 -1 20 4 23 9 7 11 7 11 -20 0z"/>
<path d="M7418 4378 c6 -6 18 -8 28 -6 14 3 12 5 -9 10 -19 3 -25 2 -19 -4z"/>
<path d="M8870 4380 c-23 -7 -23 -8 -3 -9 12 -1 25 4 28 9 3 6 5 10 3 9 -2 -1
-14 -5 -28 -9z"/>
<path d="M10310 4380 c-23 -7 -23 -8 -3 -9 12 -1 25 4 28 9 3 6 5 10 3 9 -2
-1 -14 -5 -28 -9z"/>
<path d="M10637 4378 c2 -5 10 -8 18 -8 8 0 16 3 18 8 3 4 -5 7 -18 7 -13 0
-21 -3 -18 -7z"/>
<path d="M10767 4371 c-4 -17 -3 -21 5 -13 5 5 8 16 6 23 -3 8 -7 3 -11 -10z"/>
<path d="M4848 4373 c6 -2 18 -2 25 0 6 3 1 5 -13 5 -14 0 -19 -2 -12 -5z"/>
<path d="M9058 4373 c6 -2 18 -2 25 0 6 3 1 5 -13 5 -14 0 -19 -2 -12 -5z"/>
<path d="M10378 4373 c7 -3 16 -2 19 1 4 3 -2 6 -13 5 -11 0 -14 -3 -6 -6z"/>
<path d="M10498 4373 c7 -3 16 -2 19 1 4 3 -2 6 -13 5 -11 0 -14 -3 -6 -6z"/>
<path d="M10568 4373 c7 -3 16 -2 19 1 4 3 -2 6 -13 5 -11 0 -14 -3 -6 -6z"/>
<path d="M10580 4350 c-9 -6 -10 -10 -3 -10 6 0 15 5 18 10 8 12 4 12 -15 0z"/>
<path d="M10393 3923 c76 -2 198 -2 270 0 73 1 11 3 -138 3 -148 0 -208 -2
-132 -3z"/>
<path d="M10194 3888 l-19 -23 23 19 c12 11 22 21 22 23 0 8 -8 2 -26 -19z"/>
<path d="M4977 3864 c-15 -15 -6 -34 23 -49 17 -9 28 -20 25 -25 -8 -13 -42
-13 -48 0 -3 6 -4 5 -3 -2 2 -7 16 -13 32 -13 42 0 44 29 3 50 -23 13 -28 20
-20 28 9 9 17 8 32 -2 18 -10 20 -10 17 1 -5 14 -50 23 -61 12z"/>
<path d="M5327 3857 c-2 -7 -1 -30 3 -52 7 -39 8 -39 9 -7 0 17 6 32 12 32 8
0 8 4 0 14 -9 11 -9 15 1 19 9 4 8 6 -3 6 -9 1 -19 -5 -22 -12z"/>
<path d="M6087 3863 c-15 -14 -6 -33 23 -48 17 -9 30 -11 30 -5 0 5 -11 12
-25 16 -30 7 -28 29 3 28 12 0 19 3 16 8 -6 10 -38 11 -47 1z"/>
<path d="M6180 3860 c-9 -6 -10 -10 -3 -10 7 0 14 -19 16 -42 3 -41 4 -41 5
10 1 28 1 52 0 52 -2 0 -10 -5 -18 -10z"/>
<path d="M6250 3861 c0 -4 11 -6 25 -3 14 2 25 6 25 8 0 2 -11 4 -25 4 -14 0
-25 -4 -25 -9z"/>
<path d="M6376 3862 c-3 -5 5 -8 17 -8 19 1 22 -4 22 -34 0 -30 -3 -35 -23
-34 -16 0 -20 -2 -12 -10 29 -29 66 47 39 80 -13 15 -35 19 -43 6z"/>
<path d="M6472 3858 c-13 -13 -16 -47 -6 -72 6 -17 39 -22 48 -8 3 5 -5 8 -17
8 -19 -1 -22 4 -22 34 0 49 30 54 44 8 5 -18 10 -25 10 -15 2 44 -31 71 -57
45z"/>
<path d="M8890 3854 c0 -8 5 -12 10 -9 6 4 8 11 5 16 -9 14 -15 11 -15 -7z"/>
<path d="M9195 3860 c-3 -6 1 -7 9 -4 18 7 21 14 7 14 -6 0 -13 -4 -16 -10z"/>
<path d="M9310 3866 c0 -2 9 -6 20 -9 11 -3 18 -1 14 4 -5 9 -34 13 -34 5z"/>
<path d="M9408 3863 c7 -3 16 -2 19 1 4 3 -2 6 -13 5 -11 0 -14 -3 -6 -6z"/>
<path d="M5237 3853 c-2 -4 -2 -25 0 -45 4 -27 10 -38 22 -37 10 0 11 2 4 6
-16 6 -17 50 -2 55 7 2 6 8 -4 16 -8 7 -17 9 -20 5z"/>
<path d="M7638 3838 c4 -18 2 -20 -16 -16 -12 4 -22 2 -22 -3 0 -13 34 -11 47
2 6 6 9 18 6 25 -8 23 -22 16 -15 -8z"/>
<path d="M10362 3843 c2 -9 10 -18 18 -20 12 -4 13 -3 1 5 -7 5 -10 15 -7 21
4 6 2 11 -4 11 -6 0 -10 -8 -8 -17z"/>
<path d="M5078 3843 c-15 -4 -18 -15 -17 -56 1 -29 3 -44 6 -35 2 9 16 18 31
20 21 2 28 9 30 30 3 29 -20 48 -50 41z m36 -22 c9 -14 -4 -41 -19 -41 -15 0
-28 27 -19 41 3 5 11 9 19 9 8 0 16 -4 19 -9z"/>
<path d="M5160 3840 c-6 -4 -10 -20 -8 -36 2 -21 9 -30 25 -32 24 -4 47 27 37
51 -6 18 -37 27 -54 17z m38 -32 c-2 -13 -10 -23 -18 -23 -8 0 -16 10 -18 23
-3 17 2 22 18 22 16 0 21 -5 18 -22z"/>
<path d="M7479 3834 c-10 -12 -9 -18 3 -31 19 -18 38 -10 38 17 0 24 -25 33
-41 14z"/>
<path d="M5293 3805 c0 -22 2 -30 4 -17 2 12 2 30 0 40 -3 9 -5 -1 -4 -23z"/>
<path d="M5385 3804 c12 -30 13 -40 3 -52 -11 -13 -10 -14 2 -10 16 5 55 98
41 98 -5 0 -12 -12 -16 -27 l-7 -28 -10 28 c-5 15 -14 27 -19 27 -5 0 -2 -16
6 -36z"/>
<path d="M6240 3829 c0 -5 11 -9 25 -9 19 0 25 -5 25 -21 0 -18 -5 -20 -26
-16 -16 3 -22 1 -16 -5 18 -18 47 -4 47 21 0 18 -7 26 -27 32 -16 4 -28 3 -28
-2z"/>
<path d="M6362 3820 c0 -14 2 -19 5 -12 2 6 2 18 0 25 -3 6 -5 1 -5 -13z"/>
<path d="M7671 3808 c2 -28 2 -29 6 -8 3 14 10 28 17 32 7 5 5 8 -6 8 -14 0
-18 -8 -17 -32z"/>
<path d="M7717 3826 c-10 -26 4 -47 27 -44 15 2 21 10 21 28 0 29 -38 41 -48
16z m43 -16 c0 -11 -6 -20 -14 -20 -18 0 -29 16 -21 30 11 18 35 11 35 -10z"/>
<path d="M7794 3825 c-9 -23 3 -45 26 -45 11 0 20 4 20 9 0 5 -9 7 -20 4 -15
-4 -20 0 -20 15 0 13 8 22 23 25 l22 4 -23 2 c-12 0 -25 -6 -28 -14z"/>
<path d="M7864 3825 c-10 -24 4 -45 28 -44 l23 2 -22 4 c-28 5 -30 23 -3 23
11 0 20 7 20 15 0 8 -9 15 -20 15 -11 0 -23 -7 -26 -15z m33 -1 c-3 -3 -12 -4
-19 -1 -8 3 -5 6 6 6 11 1 17 -2 13 -5z"/>
<path d="M7930 3826 c0 -7 10 -17 23 -21 l22 -7 -25 -8 -25 -9 24 2 c31 3 38
23 11 32 -11 3 -18 11 -15 16 4 5 1 9 -4 9 -6 0 -11 -6 -11 -14z"/>
<path d="M8000 3825 c0 -8 2 -15 4 -15 2 0 13 -3 23 -6 16 -5 16 -4 -2 7 -19
12 -19 12 0 20 19 7 18 8 -2 8 -14 1 -23 -5 -23 -14z"/>
<path d="M8062 3815 c0 -16 2 -22 5 -12 2 9 2 23 0 30 -3 6 -5 -1 -5 -18z"/>
<path d="M8091 3813 c2 -23 2 -24 6 -5 3 13 12 22 23 22 11 0 21 -9 23 -22 5
-20 5 -20 4 2 -2 19 -8 26 -29 28 -25 3 -28 0 -27 -25z"/>
<path d="M8166 3825 c-8 -23 4 -45 25 -45 10 0 19 -5 19 -11 0 -7 -9 -9 -21
-6 -16 4 -19 3 -11 -5 21 -21 42 0 42 42 0 36 -3 40 -24 40 -13 0 -26 -7 -30
-15z m44 -15 c0 -11 -7 -20 -15 -20 -8 0 -15 9 -15 20 0 11 7 20 15 20 8 0 15
-9 15 -20z"/>
<path d="M9470 3829 c0 -5 5 -7 10 -4 6 3 10 8 10 11 0 2 -4 4 -10 4 -5 0 -10
-5 -10 -11z"/>
<path d="M9598 3810 c2 -16 6 -30 8 -30 2 0 4 14 4 30 0 17 -4 30 -8 30 -5 0
-7 -13 -4 -30z"/>
<path d="M10518 3833 c7 -3 16 -2 19 1 4 3 -2 6 -13 5 -11 0 -14 -3 -6 -6z"/>
<path d="M10772 3815 c0 -16 2 -22 5 -12 2 9 2 23 0 30 -3 6 -5 -1 -5 -18z"/>
<path d="M8970 3808 c0 -4 14 -8 30 -8 17 0 30 2 30 4 0 2 -13 6 -30 8 -16 3
-30 1 -30 -4z"/>
<path d="M8920 3784 c0 -8 5 -12 10 -9 6 4 8 11 5 16 -9 14 -15 11 -15 -7z"/>
<path d="M10465 3790 c-16 -7 -17 -9 -3 -9 9 -1 20 4 23 9 7 11 7 11 -20 0z"/>
<path d="M10518 3788 c6 -6 18 -8 28 -6 14 3 12 5 -9 10 -19 3 -25 2 -19 -4z"/>
<path d="M6087 3778 c2 -5 13 -8 23 -8 10 0 21 3 23 8 3 4 -8 7 -23 7 -15 0
-26 -3 -23 -7z"/>
<path d="M8008 3783 c6 -2 18 -2 25 0 6 3 1 5 -13 5 -14 0 -19 -2 -12 -5z"/>
<path d="M9325 3780 c-16 -7 -17 -9 -3 -9 9 -1 20 4 23 9 7 11 7 11 -20 0z"/>
<path d="M9505 3780 c-16 -7 -17 -9 -3 -9 9 -1 20 4 23 9 7 11 7 11 -20 0z"/>
<path d="M10378 3783 c6 -2 18 -2 25 0 6 3 1 5 -13 5 -14 0 -19 -2 -12 -5z"/>
<path d="M10598 3783 c7 -3 16 -2 19 1 4 3 -2 6 -13 5 -11 0 -14 -3 -6 -6z"/>
<path d="M10668 3783 c7 -3 16 -2 19 1 4 3 -2 6 -13 5 -11 0 -14 -3 -6 -6z"/>
<path d="M8988 3773 c6 -2 18 -2 25 0 6 3 1 5 -13 5 -14 0 -19 -2 -12 -5z"/>
<path d="M9078 3773 c6 -2 18 -2 25 0 6 3 1 5 -13 5 -14 0 -19 -2 -12 -5z"/>
<path d="M9398 3773 c6 -2 18 -2 25 0 6 3 1 5 -13 5 -14 0 -19 -2 -12 -5z"/>
<path d="M10212 3738 l28 -28 278 2 277 2 -282 6 c-263 5 -283 6 -305 25 -13
11 -11 8 4 -7z"/>
<path d="M4590 3281 c-48 -10 -60 -18 -60 -43 0 -12 -7 -30 -17 -40 -10 -12
-12 -18 -4 -18 7 0 9 -5 6 -10 -5 -8 -11 -8 -19 -1 -18 15 -53 2 -60 -22 -9
-33 -8 -34 19 -39 13 -3 22 -1 19 3 -10 17 16 9 41 -13 34 -29 33 -64 -3 -82
-64 -33 -57 -67 18 -106 51 -26 80 -26 80 0 0 11 6 20 14 20 8 0 18 -9 21 -20
8 -26 41 -26 84 1 36 22 36 27 7 107 -18 49 -13 60 39 77 21 8 31 18 36 42 9
47 -2 57 -63 55 -29 -1 -47 1 -40 4 19 9 15 72 -5 78 -41 11 -80 13 -113 7z
m30 -65 c0 -3 -4 -8 -10 -11 -5 -3 -10 -1 -10 4 0 6 5 11 10 11 6 0 10 -2 10
-4z m28 -98 c-6 -18 -28 -21 -28 -4 0 9 7 16 16 16 9 0 14 -5 12 -12z m-21
-50 c-3 -8 -6 -5 -6 6 -1 11 2 17 5 13 3 -3 4 -12 1 -19z m48 -68 c9 -15 -14
-40 -36 -40 -10 0 -23 9 -30 21 -9 18 -8 20 9 15 11 -4 23 -2 27 4 8 13 22 13
30 0z"/>
<path d="M4995 3128 c-26 -73 -33 -98 -25 -98 6 0 10 7 10 15 0 21 46 19 54
-1 4 -9 9 -14 12 -11 7 7 -29 107 -39 107 -4 0 -10 -6 -12 -12z m25 -44 c0 -8
-7 -14 -15 -14 -17 0 -18 2 -9 24 7 18 24 12 24 -10z"/>
<path d="M5073 3085 c0 -33 2 -45 4 -27 2 18 2 45 0 60 -2 15 -4 0 -4 -33z"/>
<path d="M5384 3126 c-3 -8 -4 -31 -2 -52 2 -31 7 -40 25 -42 24 -4 63 29 63
53 0 38 -73 74 -86 41z m61 -41 c0 -23 -5 -31 -22 -33 -20 -3 -23 1 -23 33 0
32 3 36 23 33 17 -2 22 -10 22 -33z"/>
<path d="M6114 3119 c-3 -6 -2 -15 3 -20 5 -5 9 -1 9 11 0 23 -2 24 -12 9z"/>
<path d="M6425 3119 c-4 -6 -5 -12 -2 -15 2 -3 7 2 10 11 7 17 1 20 -8 4z"/>
<path d="M6569 3092 c5 -34 6 -35 9 -8 2 16 0 32 -5 37 -5 5 -7 -7 -4 -29z"/>
<path d="M8890 3114 c0 -8 5 -12 10 -9 6 4 8 11 5 16 -9 14 -15 11 -15 -7z"/>
<path d="M10378 3123 c6 -2 18 -2 25 0 6 3 1 5 -13 5 -14 0 -19 -2 -12 -5z"/>
<path d="M5104 3086 c-10 -40 32 -77 51 -45 4 6 0 9 -10 7 -10 -2 -20 3 -22
10 -3 7 5 12 22 12 37 0 30 34 -7 38 -22 3 -29 -2 -34 -22z m46 4 c0 -5 -7
-10 -15 -10 -8 0 -15 5 -15 10 0 6 7 10 15 10 8 0 15 -4 15 -10z"/>
<path d="M5190 3095 c10 -12 10 -21 2 -40 -7 -14 -8 -25 -3 -25 5 0 12 7 15
17 6 15 8 15 19 -1 11 -15 12 -11 12 23 0 29 -3 37 -11 30 -8 -7 -14 -6 -19 1
-3 5 -11 10 -17 10 -6 0 -6 -6 2 -15z"/>
<path d="M5270 3101 c0 -5 9 -7 20 -4 11 3 20 1 20 -5 0 -6 -10 -12 -22 -14
-35 -5 -31 -43 5 -44 25 -1 27 2 27 37 0 35 -3 39 -25 39 -14 0 -25 -4 -25 -9z
m40 -40 c0 -14 -18 -23 -30 -16 -6 4 -8 11 -5 16 8 12 35 12 35 0z"/>
<path d="M5490 3095 c-16 -19 1 -65 24 -65 39 0 49 72 10 78 -11 2 -27 -4 -34
-13z m48 -19 c4 -19 -16 -39 -30 -30 -4 3 -8 16 -8 30 0 19 5 25 17 22 10 -2
19 -12 21 -22z"/>
<path d="M5574 3096 c-15 -39 24 -83 48 -57 11 12 10 13 -4 8 -9 -3 -22 1 -28
9 -10 12 -7 14 19 14 33 0 39 8 19 28 -16 16 -47 15 -54 -2z m46 -6 c0 -5 -7
-10 -15 -10 -8 0 -15 5 -15 10 0 6 7 10 15 10 8 0 15 -4 15 -10z"/>
<path d="M7672 3090 c0 -14 2 -19 5 -12 2 6 2 18 0 25 -3 6 -5 1 -5 -13z"/>
<path d="M7755 3100 c-3 -6 1 -7 9 -4 18 7 21 14 7 14 -6 0 -13 -4 -16 -10z"/>
<path d="M8038 3103 c7 -3 16 -2 19 1 4 3 -2 6 -13 5 -11 0 -14 -3 -6 -6z"/>
<path d="M8998 3103 c7 -3 16 -2 19 1 4 3 -2 6 -13 5 -11 0 -14 -3 -6 -6z"/>
<path d="M9065 3100 c-3 -6 1 -7 9 -4 18 7 21 14 7 14 -6 0 -13 -4 -16 -10z"/>
<path d="M9508 3103 c7 -3 16 -2 19 1 4 3 -2 6 -13 5 -11 0 -14 -3 -6 -6z"/>
<path d="M9572 3080 c0 -19 2 -27 5 -17 2 9 2 25 0 35 -3 9 -5 1 -5 -18z"/>
<path d="M9590 3106 c0 -2 7 -7 16 -10 8 -3 12 -2 9 4 -6 10 -25 14 -25 6z"/>
<path d="M9638 3103 c7 -3 16 -2 19 1 4 3 -2 6 -13 5 -11 0 -14 -3 -6 -6z"/>
<path d="M10244 3095 c-4 -10 -1 -21 7 -26 20 -12 34 -5 34 17 0 24 -33 31
-41 9z"/>
<path d="M10605 3100 c-3 -6 1 -7 9 -4 18 7 21 14 7 14 -6 0 -13 -4 -16 -10z"/>
<path d="M9410 3096 c0 -2 11 -6 25 -8 13 -3 22 -1 19 3 -5 9 -44 13 -44 5z"/>
<path d="M6148 3083 c21 -8 13 -33 -10 -33 -19 0 -20 -2 -8 -10 10 -6 19 -5
29 5 16 15 8 45 -11 44 -10 0 -10 -2 0 -6z"/>
<path d="M7880 3080 c0 -5 5 -10 11 -10 5 0 7 5 4 10 -3 6 -8 10 -11 10 -2 0
-4 -4 -4 -10z"/>
<path d="M6200 3066 c0 -8 4 -17 9 -20 5 -4 7 3 4 14 -6 23 -13 26 -13 6z"/>
<path d="M8983 3073 c9 -2 25 -2 35 0 9 3 1 5 -18 5 -19 0 -27 -2 -17 -5z"/>
<path d="M9518 3073 c7 -3 16 -2 19 1 4 3 -2 6 -13 5 -11 0 -14 -3 -6 -6z"/>
<path d="M8861 3054 c0 -11 3 -14 6 -6 3 7 2 16 -1 19 -3 4 -6 -2 -5 -13z"/>
<path d="M8920 3054 c0 -8 5 -12 10 -9 6 4 8 11 5 16 -9 14 -15 11 -15 -7z"/>
<path d="M9355 3060 c-3 -5 -1 -10 4 -10 6 0 11 5 11 10 0 6 -2 10 -4 10 -3 0
-8 -4 -11 -10z"/>
<path d="M8987 3039 c7 -7 15 -10 18 -7 3 3 -2 9 -12 12 -14 6 -15 5 -6 -5z"/>
<path d="M9190 3039 c0 -5 11 -9 25 -9 14 0 25 2 25 4 0 2 -11 6 -25 8 -14 3
-25 1 -25 -3z"/>
<path d="M9417 3039 c7 -7 15 -10 18 -7 3 3 -2 9 -12 12 -14 6 -15 5 -6 -5z"/>
<path d="M10393 2983 c76 -2 198 -2 270 0 73 1 11 3 -138 3 -148 0 -208 -2
-132 -3z"/>
<path d="M4545 2536 c-38 -17 -90 -72 -104 -109 -6 -16 -11 -51 -11 -78 0
-143 145 -239 278 -184 98 42 147 152 113 257 -13 40 -74 102 -114 117 -39 15
-126 13 -162 -3z m142 -102 c3 -9 1 -25 -5 -34 -9 -14 -8 -21 3 -30 17 -14 3
-50 -19 -50 -25 0 -39 26 -26 49 7 14 7 21 0 21 -5 0 -10 14 -10 30 0 25 4 30
25 30 15 0 28 -7 32 -16z m-59 -134 c4 -24 -23 -54 -42 -47 -19 7 -22 53 -3
60 20 9 42 3 45 -13z"/>
<path d="M4971 2348 c1 -38 3 -46 8 -28 4 14 17 27 31 31 25 7 25 7 -2 8 -17
1 -28 7 -28 15 0 8 12 17 28 19 25 4 25 4 -5 6 l-33 1 1 -52z"/>
<path d="M6083 2385 c-3 -9 -3 -18 -1 -21 3 -3 8 4 11 16 6 23 -1 27 -10 5z"/>
<path d="M6193 2355 c0 -27 2 -38 4 -22 2 15 2 37 0 50 -2 12 -4 0 -4 -28z"/>
<path d="M7600 2391 c0 -5 9 -7 20 -4 16 4 20 0 20 -18 0 -19 2 -21 10 -9 5 9
5 19 -2 27 -12 15 -48 18 -48 4z"/>
<path d="M8868 2393 c7 -3 16 -2 19 1 4 3 -2 6 -13 5 -11 0 -14 -3 -6 -6z"/>
<path d="M6422 2370 c0 -14 2 -19 5 -12 2 6 2 18 0 25 -3 6 -5 1 -5 -13z"/>
<path d="M5050 2340 c0 -25 4 -39 10 -35 6 3 10 19 10 35 0 16 -4 32 -10 35
-6 4 -10 -10 -10 -35z"/>
<path d="M5090 2360 c-15 -28 5 -64 31 -57 13 4 19 1 16 -6 -2 -7 -14 -12 -26
-11 -13 0 -18 -3 -12 -9 5 -5 17 -7 27 -5 15 2 20 14 22 53 3 48 1 51 -22 53
-17 1 -29 -5 -36 -18z m45 -20 c0 -27 -22 -39 -31 -16 -8 22 3 49 19 43 6 -2
12 -14 12 -27z"/>
<path d="M5181 2336 c2 -41 2 -41 8 -8 3 18 11 33 16 33 6 0 13 -15 16 -33 5
-27 7 -29 8 -8 2 30 17 57 27 48 3 -4 10 -22 15 -40 8 -33 8 -33 6 7 l-2 40
-47 1 -48 0 1 -40z"/>
<path d="M5310 2371 c0 -6 6 -8 14 -5 8 3 17 1 20 -5 4 -6 -5 -13 -19 -17 -35
-9 -29 -38 8 -42 27 -3 28 -2 25 35 -2 31 -7 39 -25 41 -13 2 -23 -1 -23 -7z
m32 -53 c-6 -6 -16 -7 -22 -3 -9 6 -9 9 1 16 17 10 34 0 21 -13z"/>
<path d="M7482 2367 c-15 -17 1 -42 23 -33 18 6 17 37 -1 43 -6 2 -16 -2 -22
-10z"/>
<path d="M8126 2370 c7 -8 14 -24 17 -35 4 -19 5 -19 6 1 0 12 -7 28 -16 35
-16 12 -17 12 -7 -1z"/>
<path d="M10251 2366 c-14 -17 -7 -36 14 -36 22 0 29 20 13 36 -13 13 -16 13
-27 0z"/>
<path d="M7600 2357 c0 -10 8 -17 18 -17 9 0 13 4 7 8 -5 4 -13 11 -17 16 -5
5 -8 2 -8 -7z"/>
<path d="M7670 2340 c0 -16 2 -30 4 -30 2 0 6 14 8 30 3 17 1 30 -4 30 -4 0
-8 -13 -8 -30z"/>
<path d="M7717 2356 c-8 -21 17 -50 37 -43 16 6 23 57 7 57 -4 0 -6 -11 -3
-25 3 -18 0 -25 -12 -25 -15 0 -20 11 -17 38 2 16 -6 15 -12 -2z"/>
<path d="M7790 2345 c0 -28 25 -44 42 -27 8 8 4 9 -12 5 -20 -5 -22 -3 -18 20
3 15 1 27 -3 27 -5 0 -9 -11 -9 -25z"/>
<path d="M7863 2345 c1 -20 8 -30 20 -31 12 -1 13 -1 2 3 -22 7 -18 23 5 23
13 0 20 6 19 18 0 10 -3 12 -6 5 -2 -7 -11 -13 -18 -13 -7 0 -16 6 -19 13 -3
6 -4 -1 -3 -18z"/>
<path d="M7930 2361 c0 -10 19 -25 25 -20 1 2 -3 10 -11 17 -8 7 -14 8 -14 3z"/>
<path d="M8000 2355 c0 -8 7 -15 15 -15 21 0 19 -18 -2 -23 -16 -4 -16 -5 -1
-6 27 -2 32 19 9 40 -17 16 -21 17 -21 4z"/>
<path d="M8062 2345 c0 -16 2 -22 5 -12 2 9 2 23 0 30 -3 6 -5 -1 -5 -18z"/>
<path d="M8090 2345 c0 -14 2 -25 4 -25 2 0 6 11 8 25 3 14 1 25 -3 25 -5 0
-9 -11 -9 -25z"/>
<path d="M8169 2360 c-8 -19 8 -50 24 -50 9 0 9 2 1 8 -7 4 -14 18 -16 32 -2
17 -5 20 -9 10z"/>
<path d="M8208 2335 c2 -19 6 -35 8 -35 2 0 4 16 4 35 0 19 -4 35 -8 35 -4 0
-6 -16 -4 -35z"/>
<path d="M9132 2350 c0 -14 2 -19 5 -12 2 6 2 18 0 25 -3 6 -5 1 -5 -13z"/>
<path d="M10612 2345 c0 -16 2 -22 5 -12 2 9 2 23 0 30 -3 6 -5 -1 -5 -18z"/>
<path d="M6105 2350 c3 -5 8 -10 11 -10 2 0 4 5 4 10 0 6 -5 10 -11 10 -5 0
-7 -4 -4 -10z"/>
<path d="M7970 2332 c0 -6 -8 -13 -17 -15 -16 -4 -16 -5 -1 -6 18 -1 34 16 24
26 -3 4 -6 1 -6 -5z"/>
<path d="M8937 2309 c7 -7 15 -10 18 -7 3 3 -2 9 -12 12 -14 6 -15 5 -6 -5z"/>
<path d="M9165 2310 c-16 -7 -17 -9 -3 -9 9 -1 20 4 23 9 7 11 7 11 -20 0z"/>
<path d="M10393 1723 c76 -2 198 -2 270 0 73 1 11 3 -138 3 -148 0 -208 -2
-132 -3z"/>
<path d="M10199 1691 c-16 -16 -29 -38 -29 -48 1 -11 6 -6 15 14 7 17 26 38
42 47 15 8 22 15 15 16 -8 0 -27 -13 -43 -29z"/>
<path d="M4541 1613 c1 -32 4 -46 6 -30 3 21 10 27 31 28 l27 1 -25 7 c-36 10
-38 39 -3 44 27 4 27 4 -4 6 l-33 1 1 -57z"/>
<path d="M4630 1668 c0 -14 40 -103 47 -105 6 -2 19 21 30 52 12 30 17 55 12
55 -4 0 -14 -18 -20 -40 -7 -22 -16 -40 -20 -40 -5 0 -14 18 -20 40 -7 22 -16
40 -21 40 -4 0 -8 -1 -8 -2z"/>
<path d="M4971 1618 c1 -29 4 -43 6 -30 3 16 12 22 31 23 l27 1 -25 7 c-36 10
-38 39 -3 44 27 4 27 4 -4 6 l-33 1 1 -52z"/>
<path d="M5260 1620 c0 -27 5 -50 10 -50 6 0 10 14 10 30 0 20 5 30 15 30 10
0 15 -10 15 -30 0 -16 5 -30 11 -30 6 0 9 14 7 33 -2 24 -8 33 -25 35 -13 2
-23 10 -23 18 0 8 -4 14 -10 14 -5 0 -10 -22 -10 -50z"/>
<path d="M5391 1618 c1 -29 4 -43 6 -30 3 16 12 22 31 23 l27 1 -25 7 c-36 10
-38 39 -3 44 27 4 27 4 -4 6 l-33 1 1 -52z"/>
<path d="M5480 1651 c0 -10 -3 -33 -6 -50 -6 -30 -6 -31 30 -31 30 0 36 4 36
21 0 11 -4 18 -9 14 -15 -9 -24 15 -11 30 15 18 5 35 -21 35 -12 0 -19 -7 -19
-19z m30 0 c0 -6 -4 -13 -10 -16 -5 -3 -10 1 -10 9 0 9 5 16 10 16 6 0 10 -4
10 -9z m0 -62 c0 -5 -7 -9 -15 -9 -15 0 -20 12 -9 23 8 8 24 -1 24 -14z"/>
<path d="M5553 1658 c2 -7 10 -30 18 -51 7 -20 18 -36 24 -34 13 5 48 97 36
97 -4 0 -14 -19 -21 -42 l-13 -43 -13 30 c-7 17 -13 36 -14 43 0 6 -5 12 -11
12 -6 0 -9 -6 -6 -12z"/>
<path d="M6093 1663 c-21 -8 -15 -33 12 -45 34 -15 34 -42 -1 -35 -16 3 -22 1
-16 -5 15 -15 46 -5 50 15 2 10 -6 21 -23 29 -30 13 -28 34 3 32 12 -1 19 3
16 7 -6 10 -21 10 -41 2z"/>
<path d="M6179 1653 c-13 -16 -12 -17 4 -4 16 13 21 21 13 21 -2 0 -10 -8 -17
-17z"/>
<path d="M6215 1645 c0 -13 3 -21 8 -18 4 2 7 10 7 18 0 8 -3 16 -7 18 -5 3
-8 -5 -8 -18z"/>
<path d="M6401 1656 c-27 -33 10 -109 39 -80 8 8 4 10 -12 10 -19 -1 -24 5
-26 32 -4 36 22 56 40 31 8 -12 9 -11 5 1 -5 21 -31 24 -46 6z"/>
<path d="M6488 1645 c-14 -32 3 -76 29 -74 16 1 16 2 1 6 -21 5 -32 36 -23 64
10 32 39 19 46 -21 6 -35 6 -35 8 -4 2 53 -40 74 -61 29z"/>
<path d="M8865 1660 c4 -6 11 -8 16 -5 14 9 11 15 -7 15 -8 0 -12 -5 -9 -10z"/>
<path d="M5051 1603 c1 -27 3 -31 6 -13 2 14 12 31 21 38 14 11 13 12 -6 12
-19 0 -22 -5 -21 -37z"/>
<path d="M5104 1626 c-11 -29 1 -51 29 -54 15 -2 27 1 27 6 0 6 -9 8 -20 5
-11 -3 -20 0 -20 6 0 6 12 11 26 11 19 0 25 5 22 18 -4 22 -56 29 -64 8z m46
-6 c0 -5 -7 -10 -15 -10 -8 0 -15 5 -15 10 0 6 7 10 15 10 8 0 15 -4 15 -10z"/>
<path d="M5190 1624 c0 -9 9 -18 20 -21 11 -3 20 -10 20 -15 0 -6 -9 -8 -20
-5 -11 3 -20 1 -20 -4 0 -5 11 -9 25 -9 18 0 25 5 25 20 0 13 -7 20 -20 20
-27 0 -25 18 3 23 19 4 18 4 -5 6 -20 1 -28 -4 -28 -15z"/>
<path d="M7672 1620 c0 -14 2 -19 5 -12 2 6 2 18 0 25 -3 6 -5 1 -5 -13z"/>
<path d="M9605 1630 c3 -5 8 -10 11 -10 2 0 4 5 4 10 0 6 -5 10 -11 10 -5 0
-7 -4 -4 -10z"/>
<path d="M10245 1630 c-4 -7 -3 -16 3 -22 14 -14 45 -2 40 15 -6 16 -34 21
-43 7z"/>
<path d="M10361 1624 c0 -12 7 -28 17 -35 15 -12 16 -12 6 1 -7 8 -14 24 -17
35 -4 19 -5 19 -6 -1z"/>
<path d="M10451 1613 c1 -22 2 -23 6 -8 3 11 10 23 17 27 7 5 5 8 -6 8 -13 0
-18 -7 -17 -27z"/>
<path d="M10507 1633 c-3 -5 5 -8 18 -8 13 0 21 3 18 8 -2 4 -10 7 -18 7 -8 0
-16 -3 -18 -7z"/>
<path d="M10577 1633 c-10 -9 -9 -41 2 -47 4 -3 6 5 4 18 -4 17 0 25 14 29 13
3 14 5 2 6 -9 0 -19 -2 -22 -6z"/>
<path d="M10647 1634 c-10 -10 -9 -42 2 -48 4 -3 6 6 3 19 -3 18 0 25 11 25 8
0 18 -5 20 -10 3 -6 4 -5 3 2 -3 15 -28 22 -39 12z"/>
<path d="M10710 1623 c0 -10 4 -14 8 -8 4 6 11 13 16 18 5 4 2 7 -7 7 -10 0
-17 -8 -17 -17z"/>
<path d="M10762 1615 c0 -16 2 -22 5 -12 2 9 2 23 0 30 -3 6 -5 -1 -5 -18z"/>
<path d="M6175 1609 c-10 -30 -2 -32 12 -3 6 13 7 24 3 24 -5 0 -12 -9 -15
-21z"/>
<path d="M6451 1614 c0 -11 3 -14 6 -6 3 7 2 16 -1 19 -3 4 -6 -2 -5 -13z"/>
<path d="M10410 1610 c13 -9 13 -11 0 -21 -13 -9 -13 -10 0 -6 22 6 25 37 3
37 -15 0 -16 -2 -3 -10z"/>
<path d="M6260 1601 c0 -6 4 -13 10 -16 6 -3 7 1 4 9 -7 18 -14 21 -14 7z"/>
<path d="M9481 1584 c0 -11 3 -14 6 -6 3 7 2 16 -1 19 -3 4 -6 -2 -5 -13z"/>
<path d="M9205 1580 c-3 -5 -1 -10 4 -10 6 0 11 5 11 10 0 6 -2 10 -4 10 -3 0
-8 -4 -11 -10z"/>
<path d="M10212 1538 l28 -28 278 2 277 2 -282 6 c-263 5 -283 6 -305 25 -13
11 -11 8 4 -7z"/>
<path d="M4600 1047 c-19 -5 -46 -23 -59 -40 -20 -24 -22 -33 -13 -48 7 -10
12 -28 12 -38 0 -11 5 -23 12 -27 7 -5 9 -2 5 9 -4 11 -2 14 9 10 8 -3 14 -2
13 3 -4 21 2 34 15 34 9 0 12 -8 8 -25 -2 -14 0 -25 5 -25 6 0 8 -11 5 -25 -3
-16 2 -33 13 -45 18 -19 17 -20 -11 -21 -16 -1 -33 -1 -37 0 -4 1 -1 -12 8
-28 19 -38 19 -61 0 -61 -30 0 -52 22 -47 46 5 29 -2 30 -34 5 -22 -17 -22
-19 -6 -34 29 -25 75 -44 125 -51 26 -4 47 -5 47 -2 0 2 -15 19 -32 38 l-33
33 30 3 c17 2 35 8 42 13 8 7 13 0 18 -23 10 -46 13 -49 38 -37 24 11 62 57
54 65 -2 3 -22 8 -43 11 l-39 6 19 -22 c11 -11 16 -24 13 -27 -11 -12 -48 60
-41 81 4 11 9 59 11 107 3 83 2 87 -23 107 -29 23 -33 23 -84 8z m70 -147 c0
-5 -2 -10 -4 -10 -3 0 -8 5 -11 10 -3 6 -1 10 4 10 6 0 11 -4 11 -10z"/>
<path d="M10248 983 c7 -3 16 -2 19 1 4 3 -2 6 -13 5 -11 0 -14 -3 -6 -6z"/>
<path d="M10628 983 c7 -3 16 -2 19 1 4 3 -2 6 -13 5 -11 0 -14 -3 -6 -6z"/>
<path d="M10212 973 c-7 -2 -17 -14 -23 -26 -9 -19 -8 -20 3 -7 8 8 20 21 28
28 15 13 13 14 -8 5z"/>
<path d="M10683 951 c17 -21 28 -45 28 -69 2 -32 3 -33 6 -8 6 36 -14 84 -41
98 -17 9 -16 6 7 -21z"/>
<path d="M4988 933 c-27 -7 -22 -42 7 -53 14 -5 25 -15 25 -21 0 -7 -10 -9
-25 -7 -30 6 -34 -8 -5 -17 23 -7 50 10 50 32 0 8 -13 19 -30 24 -35 13 -29
34 6 25 13 -4 24 -4 24 -2 0 10 -35 22 -52 19z"/>
<path d="M5323 933 c-22 -8 -14 -43 12 -53 14 -5 25 -15 25 -21 0 -7 -10 -9
-25 -7 -27 6 -34 -6 -9 -16 20 -8 54 10 54 28 0 8 -13 19 -30 25 -37 12 -41
35 -5 29 28 -6 34 6 9 16 -9 3 -16 6 -17 5 -1 0 -8 -3 -14 -6z"/>
<path d="M5493 885 c0 -27 2 -38 4 -22 2 15 2 37 0 50 -2 12 -4 0 -4 -28z"/>
<path d="M5613 880 c-1 -30 1 -47 4 -37 5 19 18 22 28 7 3 -5 10 -10 16 -10 5
0 4 9 -3 19 -9 15 -9 23 1 35 8 10 9 16 3 16 -6 0 -14 -4 -17 -10 -10 -17 -23
-11 -28 13 -2 12 -4 -3 -4 -33z"/>
<path d="M6087 923 c-10 -9 -9 -33 1 -33 4 0 8 9 8 20 0 23 0 22 -9 13z"/>
<path d="M6199 913 c-13 -16 -12 -17 4 -4 16 13 21 21 13 21 -2 0 -10 -8 -17
-17z"/>
<path d="M6275 919 c-4 -6 -5 -12 -2 -15 2 -3 7 2 10 11 7 17 1 20 -8 4z"/>
<path d="M6316 917 c3 -10 9 -15 12 -12 3 3 0 11 -7 18 -10 9 -11 8 -5 -6z"/>
<path d="M6400 919 c0 -5 5 -7 10 -4 6 3 10 8 10 11 0 2 -4 4 -10 4 -5 0 -10
-5 -10 -11z"/>
<path d="M6446 917 c3 -10 9 -15 12 -12 3 3 0 11 -7 18 -10 9 -11 8 -5 -6z"/>
<path d="M6495 919 c-4 -6 -5 -12 -2 -15 2 -3 7 2 10 11 7 17 1 20 -8 4z"/>
<path d="M6536 917 c3 -10 9 -15 12 -12 3 3 0 11 -7 18 -10 9 -11 8 -5 -6z"/>
<path d="M7600 885 c0 -36 3 -45 18 -44 10 0 12 3 5 6 -7 2 -13 20 -13 40 0
27 4 34 18 31 12 -2 17 -13 17 -36 0 -38 1 -38 15 -12 15 28 -4 60 -35 60 -23
0 -25 -4 -25 -45z"/>
<path d="M8079 918 c0 -7 -2 -25 -3 -40 -1 -16 2 -28 6 -28 4 0 8 18 8 40 0
22 -2 40 -5 40 -3 0 -5 -6 -6 -12z"/>
<path d="M10361 888 c1 -24 3 -35 6 -25 2 9 12 17 21 17 15 1 15 2 0 11 -24
14 -22 27 5 32 19 4 18 4 -5 6 -27 1 -28 -1 -27 -41z"/>
<path d="M10619 923 c-4 -42 -3 -73 4 -73 4 0 7 18 7 40 0 22 -2 40 -5 40 -3
0 -5 -3 -6 -7z"/>
<path d="M5070 901 c0 -6 6 -8 14 -5 8 3 17 1 20 -4 3 -6 -6 -13 -20 -16 -28
-7 -30 -36 -4 -44 12 -4 13 -3 3 10 -14 16 -8 28 13 28 8 0 11 -6 8 -15 -4 -8
-1 -15 6 -15 7 0 10 13 8 33 -2 24 -8 33 -25 35 -13 2 -23 -1 -23 -7z"/>
<path d="M5140 874 c0 -41 17 -46 22 -6 4 36 21 34 29 -4 l6 -29 4 29 c6 41
29 46 29 7 0 -17 5 -31 11 -31 6 0 9 14 7 33 -3 31 -4 32 -55 33 l-53 2 0 -34z"/>
<path d="M5400 876 c0 -40 8 -47 38 -39 18 4 22 12 20 42 l-1 36 -4 -32 c-6
-43 -33 -45 -33 -3 0 17 -4 30 -10 30 -5 0 -10 -15 -10 -34z"/>
<path d="M5530 895 c-25 -30 15 -85 42 -56 11 10 10 12 -6 9 -10 -1 -21 3 -23
10 -3 7 5 12 21 12 28 0 33 9 14 28 -16 16 -33 15 -48 -3z m40 -5 c0 -5 -7
-10 -15 -10 -8 0 -15 5 -15 10 0 6 7 10 15 10 8 0 15 -4 15 -10z"/>
<path d="M7476 901 c-10 -16 6 -42 23 -39 9 2 17 13 19 26 3 16 -2 22 -17 22
-11 0 -22 -4 -25 -9z"/>
<path d="M7689 894 c-14 -17 -3 -45 22 -52 8 -2 5 3 -6 12 -20 15 -20 15 1 16
28 0 36 10 23 27 -15 17 -24 17 -40 -3z m36 -4 c3 -5 -3 -10 -15 -10 -12 0
-18 5 -15 10 3 6 10 10 15 10 5 0 12 -4 15 -10z"/>
<path d="M7760 895 c-7 -9 -10 -18 -6 -22 3 -3 6 -1 6 6 0 6 10 16 23 21 15 6
17 9 6 9 -9 1 -22 -6 -29 -14z"/>
<path d="M7862 880 c0 -19 2 -27 5 -17 2 9 2 25 0 35 -3 9 -5 1 -5 -18z"/>
<path d="M7892 880 c0 -19 2 -27 5 -17 2 9 2 25 0 35 -3 9 -5 1 -5 -18z"/>
<path d="M7916 903 c7 -4 14 -19 17 -33 4 -22 5 -21 4 4 -1 17 -9 31 -17 33
-10 3 -11 2 -4 -4z"/>
<path d="M7967 904 c-4 -4 -7 -19 -6 -33 0 -14 3 -20 6 -13 2 6 14 12 25 12
13 0 18 6 16 17 -3 19 -29 29 -41 17z m33 -14 c0 -5 -7 -10 -15 -10 -8 0 -15
5 -15 10 0 6 7 10 15 10 8 0 15 -4 15 -10z"/>
<path d="M8037 903 c-13 -12 -7 -40 11 -54 14 -11 15 -11 5 1 -7 8 -13 22 -13
31 0 10 6 20 13 22 6 3 7 6 1 6 -6 1 -14 -2 -17 -6z"/>
<path d="M10244 895 c-4 -10 -1 -21 7 -26 20 -12 34 -5 34 17 0 24 -33 31 -41
9z"/>
<path d="M10435 900 c-4 -6 -4 -14 -1 -17 3 -4 6 -1 6 5 0 15 26 16 33 2 3 -6
4 -5 3 2 -3 17 -32 22 -41 8z"/>
<path d="M10520 906 c0 -2 7 -7 16 -10 8 -3 12 -2 9 4 -6 10 -25 14 -25 6z"/>
<path d="M10502 880 c0 -14 2 -19 5 -12 2 6 2 18 0 25 -3 6 -5 1 -5 -13z"/>
<path d="M6110 879 c0 -5 5 -7 10 -4 6 3 10 -1 10 -11 0 -12 -6 -15 -27 -11
-26 5 -26 4 -8 -9 16 -12 21 -12 33 0 8 8 12 22 9 30 -7 18 -27 22 -27 5z"/>
<path d="M6177 883 c-10 -9 -9 -23 1 -23 5 0 9 7 9 15 0 17 -1 18 -10 8z"/>
<path d="M6420 865 c-21 -22 -22 -25 -5 -25 10 0 15 3 12 7 -4 3 0 15 10 25
25 28 10 22 -17 -7z"/>
<path d="M6214 869 c-3 -6 -1 -16 5 -22 8 -8 11 -5 11 11 0 24 -5 28 -16 11z"/>
<path d="M6270 861 c0 -6 4 -13 10 -16 6 -3 7 1 4 9 -7 18 -14 21 -14 7z"/>
<path d="M6316 853 c-6 -14 -5 -15 5 -6 7 7 10 15 7 18 -3 3 -9 -2 -12 -12z"/>
<path d="M6490 861 c0 -6 4 -13 10 -16 6 -3 7 1 4 9 -7 18 -14 21 -14 7z"/>
<path d="M9300 860 c0 -5 5 -10 10 -10 6 0 10 5 10 10 0 6 -4 10 -10 10 -5 0
-10 -4 -10 -10z"/>
<path d="M10170 860 c0 -8 10 -26 21 -40 11 -14 18 -19 14 -12 -30 57 -35 65
-35 52z"/>
<path d="M7770 846 c7 -7 13 -7 20 0 6 6 3 10 -10 10 -13 0 -16 -4 -10 -10z"/>
<path d="M10690 820 c-6 -11 -8 -20 -6 -20 3 0 10 9 16 20 6 11 8 20 6 20 -3
0 -10 -9 -16 -20z"/>
<path d="M2031 811 c-16 -29 -13 -77 5 -95 9 -10 30 -15 55 -14 37 1 39 3 39
35 0 29 -3 33 -25 33 -14 0 -25 -4 -25 -10 0 -5 7 -10 15 -10 9 0 12 -6 8 -16
-3 -8 -15 -14 -27 -12 -17 2 -21 10 -21 43 l0 40 38 -2 c27 -2 37 1 34 10 -2
6 -22 13 -45 15 -32 2 -43 -1 -51 -17z"/>
<path d="M2590 820 c0 -5 9 -10 20 -10 18 0 20 -7 20 -55 0 -42 3 -55 15 -55
12 0 15 13 15 55 0 42 3 55 15 55 8 0 15 5 15 10 0 6 -22 10 -50 10 -27 0 -50
-4 -50 -10z"/>
<path d="M2477 806 c-3 -8 -4 -22 -2 -33 15 -72 15 -73 40 -73 14 0 25 5 25
10 0 6 -7 10 -15 10 -10 0 -15 10 -15 30 0 20 5 30 15 30 8 0 15 5 15 10 0 6
-7 10 -15 10 -8 0 -15 5 -15 10 0 15 -27 12 -33 -4z"/>
<path d="M2911 804 c-9 -11 -10 -18 -3 -23 6 -3 12 -22 14 -41 2 -27 8 -36 26
-38 12 -2 22 1 22 7 0 6 -7 11 -15 11 -10 0 -15 10 -15 30 0 20 5 30 15 30 8
0 15 5 15 10 0 6 -7 10 -15 10 -8 0 -15 5 -15 10 0 14 -13 12 -29 -6z"/>
<path d="M2162 753 l3 -48 43 -2 42 -2 0 50 c0 37 -4 49 -15 49 -11 0 -15 -11
-15 -40 0 -29 -4 -40 -15 -40 -11 0 -15 11 -15 40 0 30 -4 40 -16 40 -12 0
-14 -10 -12 -47z"/>
<path d="M2278 776 c-18 -42 3 -78 44 -74 17 2 33 9 36 16 3 9 -3 11 -21 7
-14 -4 -28 -2 -31 4 -5 7 4 11 24 11 28 0 31 3 28 28 -2 22 -8 28 -35 30 -27
3 -35 -1 -45 -22z m62 -6 c0 -5 -9 -10 -20 -10 -11 0 -20 5 -20 10 0 6 9 10
20 10 11 0 20 -4 20 -10z"/>
<path d="M2384 785 c-7 -18 12 -45 32 -45 8 0 14 -5 14 -11 0 -7 -10 -9 -26
-5 -19 5 -25 3 -22 -6 7 -21 64 -22 72 -2 7 19 -10 44 -30 44 -8 0 -14 5 -14
10 0 6 9 10 20 10 11 0 20 5 20 10 0 16 -60 12 -66 -5z"/>
<path d="M2722 788 c-17 -17 -15 -63 2 -78 18 -14 58 -10 64 8 3 9 -3 11 -21
7 -14 -4 -28 -2 -31 4 -5 7 4 11 24 11 34 0 49 22 30 45 -15 18 -51 20 -68 3z
m48 -18 c0 -5 -9 -10 -21 -10 -11 0 -17 5 -14 10 3 6 13 10 21 10 8 0 14 -4
14 -10z"/>
<path d="M2820 785 c-10 -12 -10 -18 0 -30 7 -8 18 -15 26 -15 7 0 16 -5 20
-11 4 -7 -3 -10 -19 -7 -15 1 -26 -1 -27 -7 0 -5 15 -10 33 -10 28 0 32 3 32
25 0 18 -6 26 -22 28 -31 5 -29 22 3 22 14 0 23 4 19 10 -9 15 -51 12 -65 -5z"/>
<path d="M10228 788 c5 -5 16 -8 23 -6 8 3 3 7 -10 11 -17 4 -21 3 -13 -5z"/>
<path d="M3534 676 c-3 -7 -3 -42 -1 -77 l3 -64 2 72 c1 46 6 73 15 76 9 4 9
6 -1 6 -7 1 -15 -5 -18 -13z"/>
<path d="M3664 605 c0 -13 4 -21 8 -19 4 3 8 11 8 19 0 8 -4 16 -8 19 -4 2 -8
-6 -8 -19z"/>
<path d="M2290 550 c-31 -31 -27 -93 6 -119 29 -23 69 -28 80 -10 3 6 -1 10
-12 9 -55 -6 -84 15 -84 61 0 60 69 90 111 48 22 -22 23 -69 2 -77 -9 -2 -13
8 -13 32 0 33 -2 36 -30 36 -36 0 -56 -30 -40 -60 8 -14 20 -19 48 -18 47 1
62 13 62 49 0 40 -32 69 -75 69 -22 0 -43 -8 -55 -20z m68 -57 c-3 -30 -25
-42 -34 -19 -9 22 2 46 21 46 12 0 15 -8 13 -27z"/>
<path d="M2192 544 c-7 -8 -8 -14 -3 -14 5 0 11 -19 13 -42 2 -34 7 -43 23
-46 18 -2 18 -2 3 8 -25 15 -25 80 0 81 13 0 14 2 2 6 -8 3 -17 9 -20 13 -3 4
-11 2 -18 -6z"/>
<path d="M2449 548 c-6 -66 8 -108 34 -108 20 1 20 2 5 11 -12 6 -18 22 -18
44 0 24 5 35 18 38 16 4 16 5 0 6 -10 0 -18 6 -18 11 0 15 -20 12 -21 -2z"/>
<path d="M2722 545 c-7 -8 -8 -15 -3 -15 5 0 11 -19 13 -42 3 -38 6 -43 28
-45 14 -1 18 0 8 3 -13 4 -18 16 -18 44 0 28 5 40 18 43 16 4 16 5 0 6 -10 0
-18 6 -18 11 0 14 -13 12 -28 -5z"/>
<path d="M1815 543 c-35 -9 -43 -22 -39 -63 2 -21 -1 -42 -7 -45 -17 -11 11
-35 41 -35 38 0 56 23 35 44 -9 9 -26 16 -38 17 -19 0 -19 2 6 11 15 5 27 13
28 16 4 34 4 62 -1 61 -3 -1 -14 -4 -25 -6z m13 -36 c2 -12 -3 -17 -17 -17
-15 0 -21 6 -21 21 0 25 33 22 38 -4z m10 -79 c-3 -7 -15 -13 -28 -13 -13 0
-25 6 -27 13 -3 8 6 12 27 12 21 0 30 -4 28 -12z"/>
<path d="M1884 495 l1 -50 38 -2 37 -1 0 49 c0 60 -18 65 -22 7 -2 -35 -7 -43
-23 -43 -16 0 -21 9 -26 45 l-7 45 2 -50z"/>
<path d="M2002 528 c-16 -16 -15 -63 2 -78 18 -14 58 -10 64 8 3 11 0 11 -16
1 -17 -10 -23 -10 -36 0 -25 21 -19 31 20 31 31 0 35 3 32 23 -3 25 -45 36
-66 15z m56 -15 c2 -9 -7 -13 -28 -13 -28 0 -31 2 -20 15 15 18 41 16 48 -2z"/>
<path d="M2097 527 c-7 -19 4 -33 31 -42 31 -9 22 -31 -12 -28 -14 1 -24 -2
-21 -8 9 -14 51 -11 64 5 9 11 8 18 -4 30 -9 9 -23 16 -31 16 -8 0 -14 7 -14
16 0 12 7 15 25 12 13 -3 22 -1 19 3 -8 14 -51 10 -57 -4z"/>
<path d="M2528 515 c-16 -35 3 -75 36 -75 14 0 27 4 31 9 3 6 -7 9 -22 8 -19
-1 -28 3 -31 16 -3 14 4 17 32 17 37 0 47 15 24 38 -21 21 -57 14 -70 -13z
m60 -2 c2 -8 -6 -13 -22 -13 -25 0 -33 10 -19 24 10 10 36 3 41 -11z"/>
<path d="M2637 533 c-15 -14 -6 -33 23 -48 36 -19 30 -40 -9 -30 -19 5 -23 4
-15 -5 7 -6 22 -10 35 -8 34 4 31 39 -4 56 -30 14 -27 37 4 29 11 -3 19 -1 19
4 0 10 -43 12 -53 2z"/>
<path d="M2862 528 c-17 -17 -15 -63 2 -78 18 -14 58 -10 64 8 3 11 0 11 -16
1 -17 -10 -23 -10 -36 0 -34 28 -7 79 35 66 14 -5 19 -4 15 4 -9 15 -49 14
-64 -1z"/>
<path d="M2958 515 c-16 -35 3 -75 35 -75 30 0 47 18 47 50 0 52 -61 71 -82
25z m66 -7 c14 -23 -3 -53 -30 -53 -20 0 -31 33 -20 61 7 19 35 14 50 -8z"/>
<path d="M3070 489 c0 -60 18 -65 22 -7 2 31 8 44 21 46 14 3 17 -4 17 -42 0
-25 5 -46 10 -46 6 0 10 18 10 40 0 27 5 43 15 47 22 8 28 -1 36 -50 l7 -42
-1 50 -2 50 -67 1 -68 1 0 -48z"/>
<path d="M2800 450 c0 -5 5 -10 10 -10 6 0 10 5 10 10 0 6 -4 10 -10 10 -5 0
-10 -4 -10 -10z"/>
</g>
</svg>
